<svg width="14" height="12" viewBox="0 0 14 12" fill="none" xmlns="http://www.w3.org/2000/svg">
<path d="M0.333008 11.3332V9.4665C0.333008 9.09984 0.427452 8.75539 0.616341 8.43317C0.80523 8.11095 1.06634 7.8665 1.39967 7.69984C1.96634 7.41095 2.60523 7.1665 3.31634 6.9665C4.02745 6.7665 4.81079 6.6665 5.66634 6.6665C5.99967 6.6665 6.32467 6.68317 6.64134 6.7165C6.95801 6.74984 7.26634 6.79984 7.56634 6.8665L6.39967 8.03317C6.27745 8.01095 6.15801 7.99984 6.04134 7.99984H5.66634C4.87745 7.99984 4.16912 8.09428 3.54134 8.28317C2.91356 8.47206 2.39967 8.67762 1.99967 8.89984C1.89967 8.95539 1.81912 9.03317 1.75801 9.13317C1.6969 9.23317 1.66634 9.34428 1.66634 9.4665V9.99984H5.83301L7.16634 11.3332H0.333008ZM9.36634 11.5998L7.06634 9.29984L7.99967 8.3665L9.36634 9.73317L12.733 6.3665L13.6663 7.29984L9.36634 11.5998ZM5.66634 5.99984C4.93301 5.99984 4.30523 5.73873 3.78301 5.2165C3.26079 4.69428 2.99967 4.0665 2.99967 3.33317C2.99967 2.59984 3.26079 1.97206 3.78301 1.44984C4.30523 0.927615 4.93301 0.666504 5.66634 0.666504C6.39967 0.666504 7.02745 0.927615 7.54967 1.44984C8.0719 1.97206 8.33301 2.59984 8.33301 3.33317C8.33301 4.0665 8.0719 4.69428 7.54967 5.2165C7.02745 5.73873 6.39967 5.99984 5.66634 5.99984ZM5.66634 4.6665C6.03301 4.6665 6.3469 4.53595 6.60801 4.27484C6.86912 4.01373 6.99967 3.69984 6.99967 3.33317C6.99967 2.9665 6.86912 2.65262 6.60801 2.3915C6.3469 2.13039 6.03301 1.99984 5.66634 1.99984C5.29967 1.99984 4.98579 2.13039 4.72467 2.3915C4.46356 2.65262 4.33301 2.9665 4.33301 3.33317C4.33301 3.69984 4.46356 4.01373 4.72467 4.27484C4.98579 4.53595 5.29967 4.6665 5.66634 4.6665Z" fill="white"/>
</svg>
