<svg width="16" height="16" viewBox="0 0 16 16" fill="none" xmlns="http://www.w3.org/2000/svg">
<path fill-rule="evenodd" clip-rule="evenodd" d="M3.33317 1.33366C3.33317 0.965469 3.63165 0.666992 3.99984 0.666992H11.9998C12.368 0.666992 12.6665 0.965469 12.6665 1.33366V5.33366H13.3332C13.8636 5.33366 14.3723 5.54437 14.7474 5.91945C15.1225 6.29452 15.3332 6.80323 15.3332 7.33366V10.667C15.3332 11.1974 15.1225 11.7061 14.7474 12.0812C14.3723 12.4563 13.8636 12.667 13.3332 12.667H12.6665V14.667C12.6665 15.0352 12.368 15.3337 11.9998 15.3337H3.99984C3.63165 15.3337 3.33317 15.0352 3.33317 14.667V12.667H2.6665C2.13607 12.667 1.62736 12.4563 1.25229 12.0812C0.877218 11.7061 0.666504 11.1974 0.666504 10.667V7.33366C0.666504 6.80323 0.877218 6.29452 1.25229 5.91945C1.62736 5.54437 2.13607 5.33366 2.6665 5.33366H3.33317V1.33366ZM4.6665 14.0003H11.3332V10.0003H4.6665V14.0003ZM12.6665 11.3337V9.33366C12.6665 8.96547 12.368 8.66699 11.9998 8.66699H3.99984C3.63165 8.66699 3.33317 8.96547 3.33317 9.33366V11.3337H2.6665C2.48969 11.3337 2.32012 11.2634 2.1951 11.1384C2.07007 11.0134 1.99984 10.8438 1.99984 10.667V7.33366C1.99984 7.15685 2.07007 6.98728 2.1951 6.86225C2.32012 6.73723 2.48969 6.66699 2.6665 6.66699H13.3332C13.51 6.66699 13.6795 6.73723 13.8046 6.86225C13.9296 6.98728 13.9998 7.15685 13.9998 7.33366V10.667C13.9998 10.8438 13.9296 11.0134 13.8046 11.1384C13.6795 11.2634 13.51 11.3337 13.3332 11.3337H12.6665ZM11.3332 2.00033V5.33366H4.6665V2.00033H11.3332Z" fill="black" fill-opacity="0.7"/>
</svg>
