<svg width="14" height="13" viewBox="0 0 14 13" fill="none" xmlns="http://www.w3.org/2000/svg">
<path d="M5.56659 12.4566L7.89992 10.1233H13.6666V12.4566H5.56659ZM1.33325 11.4566H2.06659L9.44992 4.07329L8.71658 3.33995L1.33325 10.7233V11.4566ZM11.5666 3.35662L9.43325 1.22329L10.1333 0.523285C10.3221 0.334396 10.5583 0.242729 10.8416 0.248285C11.1249 0.253841 11.361 0.351063 11.5499 0.539952L12.2666 1.25662C12.4555 1.44551 12.5499 1.67884 12.5499 1.95662C12.5499 2.2344 12.4555 2.46773 12.2666 2.65662L11.5666 3.35662ZM10.8666 4.05662L2.46658 12.4566H0.333252V10.3233L8.73325 1.92328L10.8666 4.05662ZM9.08325 3.70662L8.71658 3.33995L9.44992 4.07329L9.08325 3.70662Z" fill="white"/>
</svg>
