<svg width="16" height="12" viewBox="0 0 16 12" fill="none" xmlns="http://www.w3.org/2000/svg">
<path fill-rule="evenodd" clip-rule="evenodd" d="M6.82989 3.07381C6.62353 2.95645 6.37032 2.95769 6.16511 3.07706C5.95991 3.19643 5.83366 3.41592 5.83366 3.65332V8.01332C5.83366 8.25072 5.95991 8.47021 6.16511 8.58958C6.37032 8.70895 6.62353 8.71019 6.82989 8.59283L10.6632 6.41283C10.8716 6.29432 11.0003 6.07305 11.0003 5.83332C11.0003 5.59359 10.8716 5.37232 10.6632 5.25381L6.82989 3.07381ZM8.98508 5.83332L7.16699 6.86726V4.79938L8.98508 5.83332Z" fill="white"/>
<path fill-rule="evenodd" clip-rule="evenodd" d="M8.00029 0L7.94712 7.64926e-05C7.91272 0.000152508 7.86234 0.000304063 7.79793 0.000606298C7.66912 0.00121069 7.48413 0.00241788 7.25867 0.0048298C6.80801 0.00965079 6.1944 0.0192978 5.54391 0.0386275C4.8945 0.0579254 4.20298 0.0870247 3.59813 0.131141C3.01193 0.173898 2.45057 0.234155 2.09481 0.329301L2.08556 0.331846C1.65883 0.452574 1.27152 0.683776 0.962751 1.0021C0.653978 1.32042 0.434677 1.71459 0.326998 2.1448C0.323391 2.15921 0.320267 2.17373 0.317631 2.18835C0.100758 3.39096 -0.0054384 4.6109 0.000371101 5.83289C-0.00712919 7.06408 0.0990761 8.29334 0.317636 9.50501C0.321541 9.52666 0.326516 9.54811 0.332542 9.56927C0.451253 9.9861 0.675467 10.3653 0.983521 10.6702C1.29158 10.975 1.67306 11.1953 2.0911 11.3097L2.09481 11.3107C2.45057 11.4058 3.01193 11.4661 3.59813 11.5089C4.20298 11.553 4.8945 11.5821 5.54391 11.6014C6.1944 11.6207 6.80801 11.6303 7.25867 11.6352C7.48413 11.6376 7.66912 11.6388 7.79793 11.6394C7.86234 11.6397 7.91273 11.6398 7.94712 11.6399L8.00008 11.64L8.05365 11.6399C8.08804 11.6398 8.13842 11.6397 8.20283 11.6394C8.33164 11.6388 8.51663 11.6376 8.7421 11.6352C9.19275 11.6303 9.80637 11.6207 10.4569 11.6014C11.1063 11.5821 11.7978 11.553 12.4026 11.5089C12.9888 11.4661 13.5502 11.4058 13.906 11.3107L13.9152 11.3082C14.3419 11.1874 14.7292 10.9562 15.038 10.6379C15.3468 10.3196 15.5661 9.92541 15.6738 9.4952C15.6774 9.48079 15.6805 9.46625 15.6831 9.45163C15.8984 8.25794 16.0045 7.04715 16.0004 5.83422C16.0079 4.60288 15.9017 3.37347 15.6831 2.16166L15.027 2.28L15.6738 2.11813C15.5661 1.68792 15.3468 1.29375 15.038 0.975432C14.7292 0.657109 14.3419 0.425908 13.9152 0.305179C13.9075 0.302988 13.8997 0.300938 13.8919 0.299029C13.5414 0.213445 12.9849 0.158652 12.3984 0.119599C11.7948 0.079396 11.1042 0.0528547 10.4551 0.0352453C9.80512 0.0176094 9.19189 0.00880623 8.74148 0.00440681C8.51614 0.00220589 8.33127 0.00110439 8.20256 0.000553012C8.1382 0.000277281 8.08786 0.000139038 8.05352 6.97374e-05L8.00029 0ZM8.00038 0.666667L8.00039 1.33333L8.05083 1.3334L8.19685 1.33387C8.32345 1.33442 8.50587 1.3355 8.72845 1.33768C9.17387 1.34203 9.77898 1.35072 10.419 1.36809C11.0599 1.38548 11.731 1.41144 12.3098 1.44998C12.8955 1.48899 13.337 1.53813 13.5637 1.59145C13.7601 1.64915 13.9383 1.75672 14.081 1.90378C14.2217 2.04889 14.323 2.22747 14.3753 2.42251C14.5766 3.54672 14.6742 4.68705 14.6671 5.82915L14.6671 5.83573C14.6711 6.96062 14.5734 8.08356 14.3753 9.19084C14.323 9.38588 14.2217 9.56445 14.081 9.70956C13.9367 9.85831 13.7559 9.96667 13.5568 10.0239C13.3376 10.0816 12.8977 10.1359 12.3056 10.1791C11.728 10.2212 11.0578 10.2496 10.4172 10.2686C9.77773 10.2876 9.17301 10.2972 8.72783 10.3019C8.50538 10.3043 8.32308 10.3055 8.19658 10.3061C8.13333 10.3064 8.08405 10.3065 8.0507 10.3066H7.95006C7.91671 10.3065 7.86743 10.3064 7.80419 10.3061C7.67768 10.3055 7.49538 10.3043 7.27293 10.3019C6.82775 10.2972 6.22303 10.2876 5.58352 10.2686C4.94293 10.2496 4.27278 10.2212 3.69513 10.1791C3.10051 10.1357 2.65936 10.0811 2.44114 10.0231C2.24501 9.96912 2.06604 9.86559 1.92143 9.72248C1.7834 9.58587 1.68112 9.41758 1.62336 9.23248C1.42352 8.11205 1.32656 6.97566 1.3337 5.83752L1.33371 5.83004C1.32811 4.69654 1.42576 3.56491 1.62545 2.44917C1.67778 2.25413 1.77905 2.07555 1.91981 1.93044C2.0641 1.78169 2.24482 1.67333 2.44395 1.61613C2.66313 1.5584 3.10306 1.50413 3.69513 1.46094C4.27278 1.41881 4.94293 1.39041 5.58352 1.37137C6.22303 1.35237 6.82775 1.34285 7.27293 1.33809C7.49538 1.33571 7.67768 1.33452 7.80419 1.33393C7.86743 1.33363 7.91671 1.33348 7.95006 1.33341L7.99972 1.33333L8.00038 0.666667Z" fill="white"/>
</svg>
