<svg width="12" height="16" viewBox="0 0 12 16" fill="none" xmlns="http://www.w3.org/2000/svg">
<g clip-path="url(#clip0_5642_16246)">
<path d="M7 1C7 0.446875 6.55312 0 6 0C5.44688 0 5 0.446875 5 1V4.5H1.5C0.946875 4.5 0.5 4.94688 0.5 5.5C0.5 6.05312 0.946875 6.5 1.5 6.5H5V10C5 10.5531 5.44688 11 6 11C6.55312 11 7 10.5531 7 10V6.5H10.5C11.0531 6.5 11.5 6.05312 11.5 5.5C11.5 4.94688 11.0531 4.5 10.5 4.5H7V1ZM0 15C0 15.5531 0.446875 16 1 16H11C11.5531 16 12 15.5531 12 15C12 14.4469 11.5531 14 11 14H1C0.446875 14 0 14.4469 0 15Z" fill="white"/>
</g>
<defs>
<clipPath id="clip0_5642_16246">
<rect width="12" height="16" fill="white"/>
</clipPath>
</defs>
</svg>
