<svg width="16" height="16" viewBox="0 0 16 16" fill="none" xmlns="http://www.w3.org/2000/svg">
<path d="M4 14.6667V11.8C3.36667 11.2223 2.875 10.5473 2.525 9.77504C2.175 9.00282 2 8.18893 2 7.33337C2 5.66671 2.58333 4.25004 3.75 3.08337C4.91667 1.91671 6.33333 1.33337 8 1.33337C9.38889 1.33337 10.6194 1.74171 11.6917 2.55837C12.7639 3.37504 13.4611 4.43893 13.7833 5.75004L14.7 9.38337C14.7444 9.53893 14.7167 9.6806 14.6167 9.80837C14.5167 9.93615 14.3833 10 14.2167 10H12.6667V12.3334C12.6667 12.6112 12.5694 12.8473 12.375 13.0417C12.1806 13.2362 11.9444 13.3334 11.6667 13.3334H10V14.6667H9V12.3334H11.6667V9.00004H13.5667L12.8167 6.00004C12.55 4.92226 11.9667 4.04171 11.0667 3.35837C10.1667 2.67504 9.14444 2.33337 8 2.33337C6.61111 2.33337 5.43056 2.81393 4.45833 3.77504C3.48611 4.73615 3 5.91115 3 7.30004C3 8.01115 3.14722 8.68893 3.44167 9.33337C3.73611 9.97782 4.15 10.55 4.68333 11.05L5 11.35V14.6667H4ZM7.48333 9.76671H8.48333L8.53333 9.03337C8.66667 9.01115 8.79167 8.96393 8.90833 8.89171C9.025 8.81949 9.12778 8.73893 9.21667 8.65004L9.91667 8.88337L10.3833 8.08337L9.88333 7.68337C9.93889 7.52782 9.96667 7.36671 9.96667 7.20004C9.96667 7.03337 9.93889 6.87226 9.88333 6.71671L10.3833 6.31671L9.91667 5.51671L9.21667 5.75004C9.12778 5.66115 9.02222 5.58337 8.9 5.51671C8.77778 5.45004 8.65556 5.40004 8.53333 5.36671L8.48333 4.63337H7.48333L7.43333 5.36671C7.31111 5.40004 7.18889 5.45004 7.06667 5.51671C6.94444 5.58337 6.83889 5.66115 6.75 5.75004L6.05 5.51671L5.58333 6.31671L6.08333 6.71671C6.02778 6.87226 6 7.03337 6 7.20004C6 7.36671 6.02778 7.52782 6.08333 7.68337L5.58333 8.08337L6.05 8.88337L6.75 8.65004C6.83889 8.73893 6.94167 8.81949 7.05833 8.89171C7.175 8.96393 7.3 9.01115 7.43333 9.03337L7.48333 9.76671ZM7.98333 8.36671C7.66111 8.36671 7.38611 8.25282 7.15833 8.02504C6.93056 7.79726 6.81667 7.52226 6.81667 7.20004C6.81667 6.87782 6.93056 6.60282 7.15833 6.37504C7.38611 6.14726 7.66111 6.03337 7.98333 6.03337C8.30556 6.03337 8.58056 6.14726 8.80833 6.37504C9.03611 6.60282 9.15 6.87782 9.15 7.20004C9.15 7.52226 9.03611 7.79726 8.80833 8.02504C8.58056 8.25282 8.30556 8.36671 7.98333 8.36671Z" fill="white"/>
</svg>
