<svg width="16" height="16" viewBox="0 0 16 16" fill="none" xmlns="http://www.w3.org/2000/svg">
<path d="M4.66671 9.21667C4.82226 9.21667 4.95282 9.16389 5.05837 9.05833C5.16393 8.95278 5.21671 8.82222 5.21671 8.66667C5.21671 8.51111 5.16393 8.38056 5.05837 8.275C4.95282 8.16945 4.82226 8.11667 4.66671 8.11667C4.51115 8.11667 4.3806 8.16945 4.27504 8.275C4.16949 8.38056 4.11671 8.51111 4.11671 8.66667C4.11671 8.82222 4.16949 8.95278 4.27504 9.05833C4.3806 9.16389 4.51115 9.21667 4.66671 9.21667ZM4.66671 6.55C4.82226 6.55 4.95282 6.49722 5.05837 6.39167C5.16393 6.28611 5.21671 6.15556 5.21671 6C5.21671 5.84444 5.16393 5.71389 5.05837 5.60833C4.95282 5.50278 4.82226 5.45 4.66671 5.45C4.51115 5.45 4.3806 5.50278 4.27504 5.60833C4.16949 5.71389 4.11671 5.84444 4.11671 6C4.11671 6.15556 4.16949 6.28611 4.27504 6.39167C4.3806 6.49722 4.51115 6.55 4.66671 6.55ZM6.00004 9.16667H12V8.16667H6.00004V9.16667ZM6.00004 6.5H12V5.5H6.00004V6.5ZM5.50004 14V12.6667H2.33337C2.06671 12.6667 1.83337 12.5667 1.63337 12.3667C1.43337 12.1667 1.33337 11.9333 1.33337 11.6667V3C1.33337 2.73333 1.43337 2.5 1.63337 2.3C1.83337 2.1 2.06671 2 2.33337 2H13.6667C13.9334 2 14.1667 2.1 14.3667 2.3C14.5667 2.5 14.6667 2.73333 14.6667 3V11.6667C14.6667 11.9333 14.5667 12.1667 14.3667 12.3667C14.1667 12.5667 13.9334 12.6667 13.6667 12.6667H10.5V14H5.50004ZM2.33337 11.6667H13.6667V3H2.33337V11.6667ZM2.33337 11.6667V3V11.6667Z" fill="white"/>
</svg>
