<svg width="16" height="16" viewBox="0 0 16 16" fill="none" xmlns="http://www.w3.org/2000/svg">
<path d="M11.4 9.65C10.9667 9.65 10.5973 9.49723 10.2917 9.19167C9.98615 8.88611 9.83337 8.51667 9.83337 8.08334C9.83337 7.65 9.98615 7.28056 10.2917 6.975C10.5973 6.66945 10.9667 6.51667 11.4 6.51667C11.8334 6.51667 12.2028 6.66945 12.5084 6.975C12.8139 7.28056 12.9667 7.65 12.9667 8.08334C12.9667 8.51667 12.8139 8.88611 12.5084 9.19167C12.2028 9.49723 11.8334 9.65 11.4 9.65ZM8.13337 13.3333V12.4833C8.13337 12.1944 8.19449 11.9472 8.31671 11.7417C8.43893 11.5361 8.61115 11.3778 8.83337 11.2667C9.24449 11.0556 9.66115 10.9 10.0834 10.8C10.5056 10.7 10.9445 10.65 11.4 10.65C11.8556 10.65 12.2945 10.6972 12.7167 10.7917C13.1389 10.8861 13.5556 11.0444 13.9667 11.2667C14.1889 11.3667 14.3612 11.5222 14.4834 11.7333C14.6056 11.9444 14.6667 12.1944 14.6667 12.4833V13.3333H8.13337ZM6.66671 7.98334C5.93337 7.98334 5.33337 7.75 4.86671 7.28334C4.40004 6.81667 4.16671 6.21667 4.16671 5.48334C4.16671 4.75 4.40004 4.15 4.86671 3.68334C5.33337 3.21667 5.93337 2.98334 6.66671 2.98334C7.40004 2.98334 8.00004 3.21667 8.46671 3.68334C8.93337 4.15 9.16671 4.75 9.16671 5.48334C9.16671 6.21667 8.93337 6.81667 8.46671 7.28334C8.00004 7.75 7.40004 7.98334 6.66671 7.98334ZM1.33337 13.3333V11.7667C1.33337 11.3889 1.42782 11.0417 1.61671 10.725C1.8056 10.4083 2.08893 10.1667 2.46671 10C3.21115 9.66667 3.92504 9.41667 4.60837 9.25C5.29171 9.08334 5.97782 9 6.66671 9C7.02226 9 7.33893 9.01667 7.61671 9.05C7.89449 9.08334 8.19449 9.13334 8.51671 9.2L8.09171 9.625L7.66671 10.05C7.52226 10.0278 7.36671 10.0139 7.20004 10.0083C7.03337 10.0028 6.8556 10 6.66671 10C6.03337 10 5.41671 10.0639 4.81671 10.1917C4.21671 10.3194 3.56671 10.5556 2.86671 10.9C2.71115 10.9778 2.58337 11.1 2.48337 11.2667C2.38337 11.4333 2.33337 11.6 2.33337 11.7667V12.3333H7.13337V13.3333H1.33337ZM6.66671 6.98334C7.10004 6.98334 7.45837 6.84167 7.74171 6.55834C8.02504 6.275 8.16671 5.91667 8.16671 5.48334C8.16671 5.05 8.02504 4.69167 7.74171 4.40834C7.45837 4.125 7.10004 3.98334 6.66671 3.98334C6.23337 3.98334 5.87504 4.125 5.59171 4.40834C5.30837 4.69167 5.16671 5.05 5.16671 5.48334C5.16671 5.91667 5.30837 6.275 5.59171 6.55834C5.87504 6.84167 6.23337 6.98334 6.66671 6.98334Z" fill="white"/>
</svg>
