<svg width="16" height="16" viewBox="0 0 16 16" fill="none" xmlns="http://www.w3.org/2000/svg">
<path d="M7.71663 14C7.52774 14 7.34996 13.9639 7.18329 13.8917C7.01663 13.8194 6.87218 13.7222 6.74996 13.6L3.31663 10.1667L4.24996 9.19998C4.40551 9.04443 4.58051 8.92498 4.77496 8.84165C4.9694 8.75832 5.17218 8.74443 5.38329 8.79998L6.68329 9.09998V3.66665C6.68329 3.19998 6.8444 2.80554 7.16663 2.48332C7.48885 2.16109 7.88329 1.99998 8.34996 1.99998C8.81663 1.99998 9.21107 2.16109 9.53329 2.48332C9.85551 2.80554 10.0166 3.19998 10.0166 3.66665V6.53332H10.45C10.5055 6.53332 10.5555 6.54443 10.6 6.56665C10.6444 6.58887 10.6944 6.61109 10.75 6.63332L13.2166 7.83332C13.4833 7.95554 13.6805 8.15276 13.8083 8.42498C13.9361 8.69721 13.9722 8.97776 13.9166 9.26665L13.3166 12.9C13.2611 13.2222 13.1055 13.4861 12.85 13.6917C12.5944 13.8972 12.3055 14 11.9833 14H7.71663ZM7.58329 13H12.2666L12.9833 8.84998L9.93329 7.33332H9.01663V3.66665C9.01663 3.46665 8.95551 3.30554 8.83329 3.18332C8.71107 3.06109 8.54996 2.99998 8.34996 2.99998C8.14996 2.99998 7.98885 3.06109 7.86663 3.18332C7.7444 3.30554 7.68329 3.46665 7.68329 3.66665V10.3167L5.11663 9.76665L4.73329 10.15L7.58329 13ZM7.58329 13H12.2666H7.58329ZM2.99996 6.66665C2.3444 6.66665 1.79163 6.44443 1.34163 5.99998C0.891626 5.55554 0.666626 5.0111 0.666626 4.36665C0.666626 3.98887 0.741626 3.66109 0.891626 3.38332C1.04163 3.10554 1.3944 2.64998 1.94996 2.01665L2.99996 0.81665L4.04996 2.03332C4.61663 2.69998 4.97218 3.16665 5.11663 3.43332C5.26107 3.69998 5.33329 4.0111 5.33329 4.36665C5.33329 4.99998 5.10551 5.54165 4.64996 5.99165C4.1944 6.44165 3.6444 6.66665 2.99996 6.66665ZM2.99996 5.66665C3.36663 5.66665 3.68051 5.53887 3.94163 5.28332C4.20274 5.02776 4.33329 4.72221 4.33329 4.36665C4.33329 4.12221 4.28051 3.91109 4.17496 3.73332C4.0694 3.55554 3.78329 3.21665 3.31663 2.71665L2.98329 2.36665L2.66663 2.71665C2.27774 3.14998 2.01385 3.48332 1.87496 3.71665C1.73607 3.94998 1.66663 4.16665 1.66663 4.36665C1.66663 4.73332 1.7944 5.04165 2.04996 5.29165C2.30551 5.54165 2.62218 5.66665 2.99996 5.66665Z" fill="white"/>
</svg>
