<svg width="14" height="14" viewBox="0 0 14 14" fill="none" xmlns="http://www.w3.org/2000/svg">
<path d="M6.01634 10.0335L10.733 5.31683L9.96634 4.56683L6.01634 8.51683L4.01634 6.51683L3.26634 7.26683L6.01634 10.0335ZM6.99967 13.6668C6.05523 13.6668 5.17745 13.4974 4.36634 13.1585C3.55523 12.8196 2.84967 12.3502 2.24967 11.7502C1.64967 11.1502 1.18023 10.4446 0.841341 9.6335C0.502452 8.82238 0.333008 7.94461 0.333008 7.00016C0.333008 6.06683 0.502452 5.19461 0.841341 4.3835C1.18023 3.57238 1.64967 2.86683 2.24967 2.26683C2.84967 1.66683 3.55523 1.19461 4.36634 0.850163C5.17745 0.505718 6.05523 0.333496 6.99967 0.333496C7.93301 0.333496 8.80523 0.505718 9.61634 0.850163C10.4275 1.19461 11.133 1.66683 11.733 2.26683C12.333 2.86683 12.8052 3.57238 13.1497 4.3835C13.4941 5.19461 13.6663 6.06683 13.6663 7.00016C13.6663 7.94461 13.4941 8.82238 13.1497 9.6335C12.8052 10.4446 12.333 11.1502 11.733 11.7502C11.133 12.3502 10.4275 12.8196 9.61634 13.1585C8.80523 13.4974 7.93301 13.6668 6.99967 13.6668ZM6.99967 12.6668C8.61079 12.6668 9.95801 12.1252 11.0413 11.0418C12.1247 9.9585 12.6663 8.61127 12.6663 7.00016C12.6663 5.38905 12.1247 4.04183 11.0413 2.9585C9.95801 1.87516 8.61079 1.3335 6.99967 1.3335C5.38856 1.3335 4.04134 1.87516 2.95801 2.9585C1.87467 4.04183 1.33301 5.38905 1.33301 7.00016C1.33301 8.61127 1.87467 9.9585 2.95801 11.0418C4.04134 12.1252 5.38856 12.6668 6.99967 12.6668Z" fill="white"/>
</svg>
