<svg width="15" height="14" viewBox="0 0 15 14" fill="none" xmlns="http://www.w3.org/2000/svg">
<path d="M10.5663 12.9835L8.21634 10.6335L8.91634 9.9335L10.5663 11.5668L13.633 8.51683L14.333 9.2335L10.5663 12.9835ZM7.99967 13.6502C6.75523 13.6502 5.7219 13.2141 4.89967 12.3418C4.07745 11.4696 3.66634 10.4279 3.66634 9.21683V8.6335C2.7219 8.51127 1.93023 8.09183 1.29134 7.37516C0.652452 6.6585 0.333008 5.81127 0.333008 4.8335V1.00016H2.33301V0.333496H3.33301V2.66683H2.33301V2.00016H1.33301V4.8335C1.33301 5.62239 1.60801 6.29183 2.15801 6.84183C2.70801 7.39183 3.37745 7.66683 4.16634 7.66683C4.95523 7.66683 5.62467 7.39183 6.17467 6.84183C6.72467 6.29183 6.99967 5.62239 6.99967 4.8335V2.00016H5.99967V2.66683H4.99967V0.333496H5.99967V1.00016H7.99967V4.8335C7.99967 5.81127 7.68023 6.6585 7.04134 7.37516C6.40245 8.09183 5.61079 8.51127 4.66634 8.6335V9.21683C4.66634 10.1613 4.98023 10.9696 5.60801 11.6418C6.23579 12.3141 7.03301 12.6502 7.99967 12.6502V13.6502Z" fill="white"/>
</svg>
