<svg width="138" height="114" viewBox="0 0 138 114" fill="none" xmlns="http://www.w3.org/2000/svg">
<path d="M106.169 29.5889C105.848 28.1023 105.382 26.6463 104.754 25.2621C103.671 22.871 102.086 20.6585 99.9348 19.1197C98.1888 17.8707 96.1835 16.9944 94.1084 16.4582C91.2094 15.7084 88.1577 15.5863 85.2064 16.0898C83.0092 16.4626 80.8796 17.1841 78.8786 18.1584C76.1867 19.4662 73.741 21.2798 71.7051 23.4769C71.5635 23.6295 70.1728 25.0943 70.212 25.1815C68.9543 23.3331 67.568 21.2253 66.1316 19.597C63.1519 16.2228 59.2 13.7052 54.6836 13.0883C48.3145 12.2186 41.3611 14.7951 36.969 19.464C31.8052 24.9504 30.7044 32.7931 31.8379 39.9971C32.6836 45.3658 34.6018 50.5404 37.2327 55.2835C40.4892 61.1557 44.9446 66.4394 49.9798 70.8664C51.7911 69.0311 53.0009 68.5733 53.0009 68.5733L50.9454 66.5091C49.2082 64.8177 47.5886 63.0041 46.0933 61.099C41.638 55.4187 38.1918 48.7465 37.1695 41.5403C36.4894 36.7537 36.581 31.3501 38.8239 26.9601C41.0778 22.5505 46.7625 19.1698 51.6778 19.1175C57.2296 19.0586 61.8048 22.9058 65.0526 27.056C66.0487 28.329 67.0819 29.724 68.0977 30.9817C68.6295 31.6422 69.0001 32.4291 70.0943 32.4138C70.9074 32.4029 71.4893 31.7599 71.9384 31.1539C73.6582 28.8303 75.378 26.7029 77.6667 24.9047C80.6311 22.5767 81.3068 22.0797 83.4495 21.2601C88.6721 19.2613 94.3285 20.2923 98.7447 23.6557C104.089 27.7252 104.735 35.7423 103.342 41.8433C102.64 44.9189 101.415 47.8594 99.9108 50.6255C98.7599 52.742 97.3605 54.8105 95.6865 56.5499C95.2571 56.9968 94.4506 58.0038 93.9711 58.3962C93.9188 58.1717 93.8926 57.8948 93.9602 57.6834C94.1106 57.2148 94.2958 56.757 94.3373 56.2622C94.4179 55.2901 94.2217 54.3136 93.5242 53.5921C92.6262 52.6635 91.3772 52.4848 90.1718 52.5632C89.4351 52.6112 88.0051 52.9142 87.2684 52.9447L85.372 52.8619C85.9649 52.2319 86.56 51.5998 87.1529 50.9677C87.6324 50.4576 88.112 49.9497 88.5893 49.4397C89.0732 48.9253 89.7184 48.4217 90.1042 47.8376C90.4748 47.2752 90.4704 46.4687 90.4879 45.8148C90.5097 45.0257 90.4661 44.2367 90.3985 43.4498C90.1565 42.2161 89.9299 40.9802 89.7075 39.7442C89.252 37.2245 88.8225 34.6982 88.4542 32.1631C88.2776 30.9425 88.0618 29.6652 87.955 28.414C87.8373 27.0233 87.7959 25.8071 87.833 24.6344C87.6956 24.678 87.5452 24.7063 87.4319 24.7957C86.7496 25.3232 86.4292 26.1667 86.3071 26.9972C86.1219 28.2767 86.2221 29.5736 86.0804 30.8553C84.8554 29.2837 84.0838 27.4331 83.5956 25.2905C83.5956 25.2905 82.0632 25.7874 82.5776 30.5567C82.5776 30.5567 80.7772 29.8417 79.975 27.6685C79.975 27.6685 78.4885 28.7257 80.3172 32.3855C79.1467 31.8798 78.1157 30.7354 76.9997 29.384C76.9997 29.384 75.609 30.5654 78.2574 34.6459L75.0903 32.5969C75.0903 32.5969 73.911 34.3036 76.4286 37.2768L73.6931 35.2649C73.6931 35.2649 72.4223 36.8735 74.9006 39.6004L72.7688 38.7067C72.6817 38.7307 72.3743 40.202 73.656 41.4226L72.0168 40.9017C71.7727 41.0761 71.8991 41.0412 71.8163 41.3267C71.7226 41.6493 71.7422 41.9915 71.8163 42.3163C71.8795 42.5888 72.4048 43.3866 72.2065 43.5718C71.6942 44.0492 70.2905 43.3888 69.909 42.9114C69.5516 42.4645 69.2028 41.9501 68.7342 41.6101C68.3004 41.2962 67.7685 41.1567 67.2759 40.9627C66.5217 40.6684 65.8417 40.1671 65.1877 39.6963C64.2941 39.0533 63.4374 38.3558 62.5699 37.68C61.1008 36.8583 59.8104 35.897 58.4916 34.8595C57.7898 34.3058 57.0922 33.7435 56.4318 33.1397C56.0438 32.7844 55.5141 32.368 55.307 31.8645C55.307 31.8645 49.74 25.8398 49.1297 23.6666C49.1297 23.6666 48.3668 22.7511 48.5957 24.3139C48.5957 24.3139 49.243 26.4108 49.9689 27.3263C49.9689 27.3263 47.8916 25.0965 47.3489 23.9804C47.3489 23.9804 46.49 22.9233 46.7778 24.266C46.7778 24.266 47.3728 26.1536 48.0224 26.7814C47.7281 26.5198 46.8606 25.7024 46.5772 24.9243C46.5772 24.9243 45.7184 24.3248 46.0345 25.467C46.0345 25.467 46.7494 27.8974 49.2365 29.8417L49.4174 30.0423C49.4174 30.0423 48.7788 30.2145 48.3515 29.8984C48.3515 29.8984 47.6082 29.4123 48.0376 30.2711C48.0376 30.2711 48.9531 31.5855 50.1825 32.6449L50.5552 32.9587C50.5552 32.9587 50.8691 33.2443 50.5269 33.2443C50.5269 33.2443 50.3264 33.3293 49.9558 33.0721C49.9558 33.0721 49.7269 32.9871 49.8708 33.5865C49.8708 33.5865 50.3852 34.6153 51.5862 35.3586C51.5862 35.3586 52.0157 35.472 51.9001 35.7008C51.9001 35.7008 51.7563 35.9581 51.3574 35.7292C51.2375 35.6594 50.9934 35.8534 50.9672 35.9602C50.9214 36.1477 51.0849 36.3504 51.1939 36.4834C51.4925 36.8452 51.7737 37.2223 52.0789 37.5754L52.6434 38.1705C52.6434 38.1705 52.8156 38.1596 52.7568 38.8745C52.7568 38.8745 52.6129 39.875 53.2995 41.0194C53.5088 41.366 53.766 41.6951 54.0188 42.009C54.2455 42.2945 54.4853 42.5692 54.7469 42.8264C54.8689 42.9463 55.161 43.1228 55.1741 43.3016C55.1937 43.5609 55.1392 43.7397 55.27 43.9707C55.4204 44.2388 55.78 44.4895 56.0394 44.629C56.059 44.6399 56.0808 44.6508 56.0917 44.6704C56.1026 44.6857 56.1048 44.7053 56.107 44.7249C56.1593 45.1739 56.0569 45.466 56.3882 45.8104C56.5517 45.9783 56.9135 46.2442 57.1184 46.3488C57.1315 46.3554 57.1446 46.3619 57.1533 46.375C57.1598 46.3859 57.162 46.399 57.1642 46.412C57.2165 46.7608 57.1119 46.9243 57.3189 47.2229C57.4541 47.4169 58.1625 47.8463 58.1625 47.8463C58.2301 47.8725 58.3129 48.2386 58.3347 48.3019C58.4262 48.5656 58.3805 48.7204 58.5003 48.9732C58.6072 49.1977 58.8992 49.5007 59.1085 49.6271C59.1979 49.6816 59.2981 49.7318 59.3722 49.8081C59.4725 49.9083 59.479 49.9846 59.4681 50.1176C59.442 50.4402 59.8779 50.8478 60.3989 51.1311C60.5231 51.1987 60.8087 51.2924 60.8871 51.4232C60.9046 51.4516 60.9089 51.4864 60.9133 51.5191C60.9613 51.8657 60.9525 52.0859 61.2969 52.3017C61.5302 52.4477 61.7721 52.6766 61.9966 52.8204C62.1623 52.9251 62.2211 53.1234 62.2517 53.3065C62.2604 53.3523 62.2669 53.4024 62.2887 53.4438C62.4217 53.6858 62.862 53.8471 63.1039 53.9343C63.4265 54.0498 63.7666 54.1152 64.1066 54.1566C64.1197 54.1566 64.1328 54.161 64.1415 54.1697C64.1524 54.1806 64.1524 54.198 64.1524 54.2133C64.1153 55.0721 64.124 55.9462 64.3551 56.7832C64.7518 58.2153 65.6302 59.3574 66.3386 60.6326C66.6198 61.1361 65.8308 61.4522 65.5191 61.6549C64.863 62.0821 64.2657 62.5943 63.6794 63.1109C62.8838 63.8128 62.1013 64.5278 61.3187 65.2471C60.922 65.6133 60.5188 65.9729 60.1308 66.35C59.6382 66.8274 59.187 66.9385 58.5548 67.1369C58.1777 67.2546 57.805 67.3832 57.4366 67.5205C56.7936 67.7581 56.1637 68.024 55.5446 68.3183C54.797 68.6736 54.0581 69.0659 53.3649 69.5193C53.3039 69.5607 53.2407 69.6 53.1818 69.6436C49.9035 70.5591 50.1694 73.724 50.1694 73.724C48.454 76.7364 51.0849 78.3363 51.0849 78.3363C51.6189 80.5466 58.9145 77.9592 58.9145 77.9592C61.1465 79.6834 68.1522 84.3219 68.1522 84.3219L66.4062 78.7548C71.036 78.4301 73.0827 77.3838 73.0827 77.3838C66.755 77.1549 62.2843 74.391 62.2843 74.391C63.0734 73.5497 64.2025 72.2484 65.2095 71.7056C65.6041 71.492 66.1229 71.0757 66.5544 71.1847C66.8879 71.2697 67.1691 71.5378 67.4983 71.638C67.8775 71.7557 68.2721 71.8168 68.6666 71.8647C69.4884 71.9628 70.3232 71.9585 71.1493 71.904C72.0648 71.8429 73.1568 71.8146 74.0353 71.5116C75.9883 70.8403 77.7997 69.8005 79.4366 68.5494C80.3347 67.8627 81.1826 67.1151 81.976 66.313C82.4011 65.8836 82.8087 65.4018 83.2163 64.9441C83.6174 64.4951 84.0271 63.9915 84.5655 63.706C84.5873 63.6929 84.6157 63.6755 84.6091 63.6493C84.6048 63.6254 84.5764 63.6166 84.5525 63.6123C84.2015 63.5556 83.8397 63.5665 83.4866 63.5207C81.8605 63.3137 80.2649 62.9802 78.774 62.2805C77.3376 61.6026 75.9818 60.7503 74.6761 59.8501C73.4511 59.0043 72.261 58.1019 71.1275 57.1363C70.5194 56.6197 69.896 56.077 69.4644 55.3925L69.4208 55.3053C69.4208 55.3053 69.5712 55.314 69.6649 55.3337C70.7439 55.5364 73.3857 56.7941 73.3857 56.7941L73.5666 52.5611C73.6102 52.6788 73.6538 52.7943 73.7018 52.9098C73.8892 53.3697 74.1007 53.8188 74.3295 54.2591C74.6587 54.8912 75.027 55.5059 75.4325 56.0944C75.9229 56.8093 76.4678 57.4872 77.0673 58.1128C77.743 58.8212 78.4863 59.4621 79.2906 60.0179C80.1821 60.6304 81.1477 61.1339 82.1635 61.5067C83.2359 61.9012 84.3628 62.2434 85.5181 62.1453C85.5769 62.141 85.9453 62.0908 85.9627 62.1693C86.0216 62.4614 85.6554 62.7469 85.4658 62.8777C85.2086 63.0543 85.1017 63.1545 84.8227 63.4074C84.7813 63.4444 84.7268 63.5207 84.7595 63.5665C84.7813 63.5992 84.8358 63.5905 84.8772 63.5905C87.2488 63.5774 89.4154 62.821 91.5232 61.79C91.6758 61.7159 93.7553 60.6849 93.6681 60.5628C93.3934 60.1792 93.097 59.813 92.7809 59.4642C91.3641 60.249 89.8209 61.0838 88.2427 61.4805C87.8177 61.5873 87.5845 61.6789 86.9654 61.7835C86.8652 61.8009 86.7496 61.8445 86.7453 61.7094C86.7409 61.5524 86.9131 61.4347 87.0352 61.3432C87.6084 60.9072 88.21 60.3819 88.7332 59.8828C89.4111 59.2376 89.8536 57.9995 90.9325 57.9624C92.1052 57.9232 92.648 58.6076 93.4654 59.7672C93.5242 59.8522 93.8512 60.4473 93.9231 60.3841C95.8652 58.673 98.0908 56.5151 99.5664 54.3898C102.352 50.3857 104.44 45.7014 105.635 40.9736C106.228 38.6217 106.522 36.1978 106.566 33.774C106.587 32.61 106.419 30.7223 106.175 29.5823L106.169 29.5889Z" fill="url(#paint0_linear_3410_55711)"/>
<path d="M54.3545 11.3096C57.387 11.3096 59.8452 8.85131 59.8452 5.81886C59.8452 2.78641 57.387 0.328125 54.3545 0.328125C51.3221 0.328125 48.8638 2.78641 48.8638 5.81886C48.8638 8.85131 51.3221 11.3096 54.3545 11.3096Z" fill="#0D7E54"/>
<path d="M87.3822 14.1503C90.0008 13.7229 91.7771 11.2536 91.3497 8.63502C90.9223 6.01643 88.453 4.24012 85.8344 4.66752C83.2158 5.09493 81.4395 7.56419 81.8669 10.1828C82.2943 12.8014 84.7636 14.5777 87.3822 14.1503Z" fill="#0D7E54"/>
<path d="M36.7181 86.374C36.8249 86.374 36.9404 86.3806 37.0647 86.3936C37.1889 86.4067 37.3088 86.4263 37.4265 86.4481C37.5442 86.4721 37.651 86.4939 37.7469 86.5179C37.8428 86.5419 37.9191 86.5658 37.9714 86.592V87.7037H37.8821C37.8821 87.3832 37.7709 87.1304 37.5507 86.9473C37.3306 86.7642 37.0625 86.6727 36.7486 86.6727C36.3802 86.6727 36.0838 86.7882 35.8571 87.0192C35.6304 87.2503 35.5171 87.5184 35.5171 87.8257C35.5171 87.9521 35.5454 88.1004 35.6021 88.2726C35.6587 88.4426 35.7634 88.6017 35.9181 88.7478L37.893 90.5722C38.0935 90.7596 38.2265 90.9602 38.294 91.1738C38.3616 91.3874 38.3943 91.5945 38.3943 91.795C38.3943 92.3487 38.2265 92.7999 37.8886 93.1486C37.5507 93.4974 37.0952 93.6696 36.5197 93.6696C36.3584 93.6696 36.171 93.6521 35.953 93.6194C35.735 93.5868 35.5258 93.5279 35.3209 93.4451C35.116 93.3622 34.9481 93.2533 34.8152 93.1203C34.7956 93.0135 34.7847 92.8805 34.7847 92.7192C34.7847 92.5579 34.7977 92.3901 34.8239 92.2135C34.8501 92.037 34.8871 91.8757 34.9351 91.7274H35.0244C34.9917 92.0675 35.0353 92.3661 35.1552 92.619C35.2751 92.874 35.4517 93.0658 35.6805 93.1944C35.9116 93.3252 36.1732 93.384 36.4674 93.3688C36.8358 93.3492 37.1497 93.2206 37.4156 92.983C37.6815 92.7454 37.8123 92.4271 37.8123 92.0261C37.8123 91.8321 37.7796 91.6577 37.712 91.5008C37.6445 91.3438 37.5486 91.2087 37.4221 91.0953L35.4974 89.3123C35.2969 89.1248 35.1574 88.92 35.0768 88.6954C34.9961 88.4709 34.9569 88.2638 34.9569 88.0699C34.9569 87.7887 35.0244 87.5184 35.1574 87.259C35.2904 86.9974 35.4909 86.786 35.7546 86.6225C36.0184 86.459 36.341 86.3762 36.7224 86.3762L36.7181 86.374ZM37.9714 86.4743V86.6857H37.2085V86.4743H37.9714Z" fill="#14855B"/>
<path d="M40.2274 92.7977V93.5301H39.1157V93.4298H39.277C39.4579 93.4298 39.6171 93.3753 39.7587 93.2641C39.8982 93.153 39.9833 92.9982 40.0094 92.7977H40.2296H40.2274ZM40.7592 86.374H40.8595L41.06 86.9647L40.4693 93.5301H39.9288L40.7614 86.374H40.7592ZM40.5195 92.959V93.0091C40.5195 93.1159 40.5587 93.214 40.635 93.3055C40.7113 93.3949 40.8028 93.4407 40.9096 93.4407H41.06V93.5301H40.4497V92.959H40.5195ZM40.8595 86.374L43.7455 92.6189L43.5144 93.6717L40.6677 87.4987L40.8573 86.3762L40.8595 86.374ZM46.3917 86.374L46.4723 87.0454L43.9569 92.6473C43.8566 92.874 43.7803 93.0658 43.7258 93.2227C43.6714 93.3797 43.6365 93.5279 43.6147 93.6696H43.5144L43.3749 93.0374L46.3917 86.3718V86.374ZM46.5115 92.959H46.5813V93.5301H45.971V93.4407H46.1214C46.2347 93.4407 46.3284 93.3949 46.4026 93.3055C46.4767 93.2162 46.5137 93.1159 46.5137 93.0091V92.959H46.5115ZM46.481 86.374L47.342 93.5301H46.5595L46.008 87.4573L46.3895 86.374H46.4788H46.481ZM47.0434 92.7977H47.2527C47.2853 92.9982 47.3725 93.153 47.5142 93.2641C47.6537 93.3753 47.8107 93.4298 47.985 93.4298H48.1442V93.5301H47.0412V92.7977H47.0434Z" fill="#14855B"/>
<path d="M49.7376 92.7977C49.6918 92.9306 49.6831 93.044 49.718 93.1377C49.7507 93.2314 49.8073 93.3034 49.8836 93.3535C49.9599 93.4036 50.0384 93.4276 50.119 93.4276H50.2084V93.5279H48.1943V93.4276H48.2837C48.4385 93.4276 48.5954 93.3796 48.7589 93.2816C48.9224 93.1857 49.0575 93.0222 49.1643 92.7955H49.7354L49.7376 92.7977ZM51.8933 86.374L51.9827 87.0759L49.4673 93.4995H48.8657L51.4312 87.405C51.5053 87.2372 51.5664 87.0933 51.6165 86.9734C51.6666 86.8535 51.7102 86.7358 51.7473 86.6225C51.7843 86.5091 51.8018 86.4263 51.8018 86.3718H51.8912L51.8933 86.374ZM53.3058 90.7945V91.0953H50.1692V90.7945H53.3058ZM51.8933 86.374L54.8599 93.469H54.0077L51.6928 87.3244L51.8933 86.3718V86.374ZM53.757 92.7977H54.5788C54.679 93.0244 54.812 93.1878 54.9798 93.2837C55.1477 93.3818 55.3068 93.4298 55.4616 93.4298H55.5422V93.5301H53.2862V93.4298H53.3756C53.502 93.4298 53.6153 93.3753 53.7156 93.2641C53.8159 93.153 53.8289 92.9982 53.7548 92.7977H53.757Z" fill="#14855B"/>
<path d="M56.8348 87.246H56.8043C56.7978 87.0716 56.7324 86.9234 56.6081 86.7992C56.4839 86.6749 56.3357 86.6139 56.1613 86.6139H56.0305V86.5136H56.8327V87.246H56.8348ZM56.8348 92.7978V93.5302H56.0327V93.4299H56.1635C56.3379 93.4299 56.4861 93.3689 56.6103 93.2446C56.7346 93.1204 56.8 92.9722 56.8065 92.7978H56.837H56.8348ZM57.4561 86.5136V93.5302H56.8043V86.5136H57.4561ZM58.7399 86.5136C59.0407 86.5136 59.3132 86.5572 59.5573 86.6444C59.8014 86.7316 60.0063 86.8559 60.1742 87.0193C60.342 87.1828 60.4706 87.3812 60.56 87.61C60.6494 87.8411 60.6951 88.1027 60.6951 88.3969C60.6951 88.7173 60.621 89.0247 60.4706 89.3189C60.3202 89.6132 60.1175 89.8508 59.8603 90.0361C59.6031 90.2192 59.3132 90.3107 58.9928 90.3107C59.1061 90.3565 59.2304 90.4524 59.3633 90.5963C59.4963 90.7401 59.614 90.8774 59.7143 91.0126C59.8952 91.2742 60.0543 91.4965 60.1894 91.684C60.3268 91.8714 60.4641 92.0545 60.6058 92.2354C60.7453 92.4163 60.8673 92.5602 60.9676 92.667C61.1006 92.8131 61.2357 92.9438 61.3687 93.0572C61.5016 93.1705 61.6477 93.2621 61.8046 93.3275C61.9616 93.395 62.1359 93.4277 62.3299 93.4277V93.528H61.7785C61.4711 93.528 61.2052 93.4822 60.9807 93.3885C60.7562 93.2948 60.5687 93.1792 60.414 93.0419C60.2592 92.9046 60.1306 92.7738 60.0238 92.6452C60.0042 92.6191 59.9497 92.5406 59.8581 92.4142C59.7688 92.2877 59.6619 92.1352 59.5377 91.9586C59.4135 91.782 59.2914 91.6055 59.1715 91.4333C59.0516 91.2589 58.947 91.1107 58.8598 90.9864C58.7726 90.8622 58.7225 90.7903 58.7094 90.7706C58.583 90.6028 58.4413 90.4502 58.2887 90.3085C58.134 90.169 57.9683 90.0971 57.7874 90.0971V89.9968C57.9945 90.0034 58.171 90.0034 58.3192 89.9968C58.4936 89.9903 58.6832 89.9641 58.8903 89.9162C59.0974 89.8704 59.2914 89.7723 59.4723 89.6263C59.6532 89.4802 59.7905 89.2557 59.8821 88.9549C59.9017 88.8808 59.9192 88.7893 59.9322 88.6803C59.9453 88.5691 59.9497 88.4623 59.9431 88.3555C59.9366 87.9021 59.8211 87.5381 59.5966 87.2678C59.372 86.9975 59.0734 86.8515 58.6985 86.8319C58.511 86.8188 58.3192 86.8144 58.1231 86.8166C57.9269 86.821 57.6937 86.821 57.4255 86.821C57.4255 86.8144 57.4168 86.7861 57.3994 86.736C57.3819 86.6858 57.358 86.6095 57.3253 86.5093H58.7377L58.7399 86.5136ZM57.4277 92.7978H57.4582C57.4582 92.9722 57.5215 93.1204 57.6479 93.2446C57.7743 93.3689 57.9247 93.4299 58.0991 93.4299H58.219V93.5302H57.4277V92.7978Z" fill="#14855B"/>
<path d="M61.8657 86.324C61.9333 86.3501 62.0336 86.3785 62.1709 86.4046C62.3082 86.4308 62.4608 86.4547 62.6264 86.4744C62.7943 86.494 62.9469 86.5049 63.0886 86.5049L61.8657 86.616V86.3261V86.324ZM67.6682 86.5049V86.8057H61.8657V86.5049H67.6682ZM62.5567 86.7752V86.8057C62.3889 86.8122 62.2494 86.8733 62.136 86.9866C62.0227 87.0999 61.966 87.2416 61.966 87.4073V87.5773L61.8657 87.5882V86.7773H62.5567V86.7752ZM64.4705 92.7977V93.5301H63.6684V93.4299H63.7991C63.9735 93.4299 64.1217 93.3688 64.246 93.2446C64.3702 93.1204 64.4356 92.9721 64.4422 92.7977H64.4727H64.4705ZM65.0917 86.5441V93.5301H64.44V86.5441H65.0917ZM65.0612 92.7977H65.0917C65.0983 92.9721 65.1637 93.1204 65.2879 93.2446C65.4121 93.3688 65.5604 93.4299 65.7347 93.4299H65.8655V93.5301H65.0634V92.7977H65.0612ZM67.666 86.324V86.6139L66.4432 86.5027C66.5892 86.5027 66.7461 86.4918 66.9096 86.4722C67.0731 86.4526 67.2257 86.4286 67.3652 86.4024C67.5047 86.3763 67.6049 86.3501 67.666 86.3218V86.324ZM67.666 86.7752V87.586L67.5657 87.5751V87.4051C67.5657 87.2373 67.5069 87.0978 67.3913 86.9844C67.2736 86.8711 67.1363 86.81 66.975 86.8035V86.773H67.666V86.7752Z" fill="#14855B"/>
<path d="M71.6461 92.8175V93.528H70.8135V93.4278H71.0031C71.171 93.4278 71.3148 93.3667 71.4347 93.2469C71.5546 93.127 71.6156 92.9831 71.6156 92.8153H71.6461V92.8175ZM71.6265 86.3633L72.0668 86.9256L72.0777 93.5302H71.6156V87.6166C71.6156 87.2766 71.5851 86.8581 71.5262 86.3633H71.6265ZM71.6265 86.3633L77.4486 92.5777L77.5379 93.6697L71.7159 87.4662L71.6265 86.3633ZM72.0777 92.8175C72.0777 92.9853 72.1388 93.1292 72.2586 93.249C72.3785 93.3689 72.5224 93.43 72.6902 93.43H72.8799V93.5302H72.0472V92.8196H72.0777V92.8175ZM76.2781 86.5137H77.1107V87.2243H77.0911C77.0846 87.0499 77.0235 86.906 76.9058 86.7883C76.7881 86.6706 76.6443 86.6139 76.4699 86.6139H76.2802V86.5137H76.2781ZM77.5401 86.5137V92.3859C77.5401 92.5995 77.5467 92.8044 77.5597 93.0027C77.5728 93.1989 77.5968 93.4212 77.6295 93.6697H77.5401L77.0889 93.1379V86.5137H77.5401ZM78.3423 86.5137V86.6139H78.1613C77.9935 86.6139 77.8496 86.6728 77.7298 86.7883C77.6099 86.906 77.5467 87.0499 77.5401 87.2243H77.5096V86.5137H78.3423Z" fill="#14855B"/>
<path d="M80.0162 86.5137V87.1153H79.9857C79.9857 86.9692 79.9333 86.8472 79.8309 86.7534C79.7284 86.6597 79.602 86.6139 79.456 86.6139H79.2947V86.5137H80.0162ZM80.6374 86.5137V90.9233C80.6374 91.405 80.7268 91.8279 80.9033 92.1962C81.0799 92.5646 81.3305 92.8501 81.651 93.0529C81.9714 93.2556 82.3419 93.358 82.7626 93.358C83.2095 93.358 83.6018 93.2621 83.9353 93.0681C84.2688 92.8741 84.5304 92.606 84.7178 92.2616C84.9053 91.9172 84.999 91.514 84.999 91.054V86.5137H85.4698V91.054C85.4698 91.575 85.3587 92.0306 85.1342 92.4229C84.9097 92.8131 84.5936 93.1204 84.186 93.3406C83.7784 93.5607 83.3032 93.6719 82.7626 93.6719C82.2221 93.6719 81.7229 93.5629 81.3044 93.3471C80.8859 93.1313 80.5633 92.8262 80.3322 92.436C80.1012 92.0458 79.9857 91.5903 79.9857 91.0671V86.5159H80.6374V86.5137ZM81.3284 86.5137V86.6139H81.1671C81.021 86.6139 80.8946 86.6597 80.7922 86.7534C80.6897 86.8472 80.6374 86.9671 80.6374 87.1153H80.6178V86.5137H81.3305H81.3284ZM85.0274 86.5137V87.1153H84.9968C84.9968 86.9692 84.9445 86.8472 84.8421 86.7534C84.7396 86.6597 84.6132 86.6139 84.4672 86.6139H84.3059V86.5137H85.0274ZM86.1608 86.5137V86.6139H85.9995C85.8535 86.6139 85.7271 86.6597 85.6246 86.7534C85.52 86.8472 85.4698 86.9671 85.4698 87.1153H85.4502V86.5137H86.1608Z" fill="#14855B"/>
<path d="M87.933 87.246H87.9025C87.8959 87.0716 87.8305 86.9234 87.7063 86.7992C87.582 86.6749 87.4338 86.6139 87.2594 86.6139H87.1287V86.5136H87.9308V87.246H87.933ZM87.933 92.7978V93.5302H87.1308V93.4299H87.2616C87.436 93.4299 87.5842 93.3689 87.7085 93.2446C87.8327 93.1204 87.8981 92.9722 87.9046 92.7978H87.9352H87.933ZM88.5542 86.5136V93.5302H87.9025V86.5136H88.5542ZM89.8381 86.5136C90.1389 86.5136 90.4113 86.5572 90.6555 86.6444C90.8996 86.7316 91.1045 86.8559 91.2723 87.0193C91.4402 87.1828 91.5688 87.3812 91.6581 87.61C91.7475 87.8411 91.7933 88.1027 91.7933 88.3969C91.7933 88.7173 91.7192 89.0247 91.5688 89.3189C91.4184 89.6132 91.2157 89.8508 90.9584 90.0361C90.7012 90.2192 90.4113 90.3107 90.0909 90.3107C90.2043 90.3565 90.3285 90.4524 90.4615 90.5963C90.5944 90.7401 90.7121 90.8774 90.8124 91.0126C90.9933 91.2742 91.1524 91.4965 91.2876 91.684C91.4249 91.8714 91.5622 92.0545 91.7039 92.2354C91.8434 92.4163 91.9655 92.5602 92.0657 92.667C92.1987 92.8131 92.3317 92.9438 92.4668 93.0572C92.5998 93.1705 92.7458 93.2621 92.9028 93.3275C93.0597 93.395 93.2341 93.4277 93.4281 93.4277V93.528H92.8766C92.5693 93.528 92.3033 93.4822 92.0788 93.3885C91.8543 93.2948 91.6669 93.1792 91.5121 93.0419C91.3573 92.9046 91.2287 92.7738 91.1219 92.6452C91.1023 92.6191 91.0478 92.5406 90.9563 92.4142C90.8669 92.2877 90.7601 92.1352 90.6358 91.9586C90.5116 91.782 90.3895 91.6055 90.2697 91.4333C90.1498 91.2589 90.0451 91.1107 89.958 90.9864C89.8708 90.8622 89.8206 90.7903 89.8076 90.7706C89.6811 90.6028 89.5394 90.4502 89.3869 90.3085C89.2321 90.169 89.0664 90.0971 88.8855 90.0971V89.9968C89.0926 90.0034 89.2692 90.0034 89.4174 89.9968C89.5918 89.9903 89.7814 89.9641 89.9885 89.9162C90.1955 89.8704 90.3895 89.7723 90.5705 89.6263C90.7514 89.4802 90.8887 89.2557 90.9802 88.9549C90.9999 88.8808 91.0173 88.7893 91.0304 88.6803C91.0435 88.5691 91.0478 88.4623 91.0413 88.3555C91.0347 87.9021 90.9192 87.5381 90.6947 87.2678C90.4702 86.9975 90.1716 86.8515 89.7966 86.8319C89.6092 86.8188 89.4174 86.8144 89.2212 86.8166C89.025 86.821 88.7918 86.821 88.5237 86.821C88.5237 86.8144 88.515 86.7861 88.4975 86.736C88.4801 86.6858 88.4561 86.6095 88.4234 86.5093H89.8359L89.8381 86.5136ZM88.5259 92.7978H88.5564C88.5564 92.9722 88.6196 93.1204 88.746 93.2446C88.8724 93.3689 89.0228 93.4299 89.1972 93.4299H89.3171V93.5302H88.5259V92.7978Z" fill="#14855B"/>
<path d="M95.6297 86.374C95.7365 86.374 95.8521 86.3806 95.9763 86.3936C96.1005 86.4067 96.2204 86.4263 96.3381 86.4481C96.4558 86.4721 96.5626 86.4939 96.6586 86.5179C96.7566 86.5419 96.8308 86.5658 96.8852 86.592V87.7037H96.7959C96.7959 87.3832 96.6847 87.1304 96.4646 86.9473C96.2444 86.7642 95.9763 86.6727 95.6624 86.6727C95.294 86.6727 94.9976 86.7882 94.7709 87.0192C94.5442 87.2503 94.4309 87.5184 94.4309 87.8257C94.4309 87.9521 94.4592 88.1004 94.5159 88.2726C94.5726 88.4426 94.6772 88.6017 94.8319 88.7478L96.8068 90.5722C97.0073 90.7596 97.1403 90.9602 97.2078 91.1738C97.2754 91.3874 97.3081 91.5945 97.3081 91.795C97.3081 92.3487 97.1381 92.7999 96.8024 93.1486C96.4646 93.4952 96.009 93.6696 95.4335 93.6696C95.2744 93.6696 95.0848 93.6521 94.8668 93.6194C94.6488 93.5868 94.4396 93.5279 94.2347 93.4451C94.0298 93.3622 93.862 93.2533 93.729 93.1203C93.7094 93.0135 93.6985 92.8805 93.6985 92.7192C93.6985 92.5579 93.7116 92.3901 93.7377 92.2135C93.7639 92.037 93.8009 91.8757 93.8489 91.7274H93.9383C93.9056 92.0675 93.947 92.3661 94.069 92.619C94.1889 92.874 94.3655 93.0658 94.5944 93.1944C94.8254 93.3252 95.087 93.384 95.3812 93.3688C95.7496 93.3492 96.0635 93.2206 96.3272 92.983C96.591 92.7454 96.7239 92.4271 96.7239 92.0261C96.7239 91.8321 96.6913 91.6577 96.6237 91.5008C96.5561 91.3438 96.4602 91.2087 96.3338 91.0953L94.4091 89.3123C94.2085 89.1248 94.069 88.92 93.9884 88.6954C93.9077 88.4709 93.8685 88.2638 93.8685 88.0699C93.8685 87.7887 93.9361 87.5184 94.069 87.259C94.202 86.9974 94.4004 86.786 94.6641 86.6225C94.9279 86.459 95.2505 86.3762 95.6319 86.3762L95.6297 86.374ZM96.8831 86.4743V86.6857H96.1223V86.4743H96.8831Z" fill="#14855B"/>
<path d="M99.2785 87.2461H99.2479C99.2479 87.0717 99.1847 86.9235 99.0583 86.7992C98.9319 86.675 98.7815 86.6139 98.6071 86.6139H98.4872L98.4785 86.5137H99.2806V87.2461H99.2785ZM99.2785 92.7978V93.5302H98.4763V93.43H98.6071C98.7815 93.43 98.9297 93.3689 99.0518 93.2447C99.176 93.1204 99.2414 92.9722 99.2479 92.7978H99.2785ZM99.8997 86.5137V93.5302H99.2479V86.5137H99.8997ZM102.605 86.5137V86.8254H99.8692V86.5137H102.605ZM102.173 89.9206V90.2214H99.867V89.9206H102.173ZM102.605 93.2185V93.5302H99.8692V93.2185H102.605ZM103.215 91.9063L102.633 93.5302H100.97L101.33 93.2185C101.683 93.2185 101.973 93.164 102.197 93.0529C102.422 92.9417 102.603 92.7869 102.744 92.5864C102.884 92.3859 103.008 92.1592 103.115 91.9041H103.215V91.9063ZM102.605 86.3349V86.6248L101.382 86.5137C101.528 86.5137 101.685 86.5028 101.848 86.4832C102.012 86.4635 102.164 86.4396 102.304 86.4134C102.443 86.3873 102.544 86.3589 102.605 86.3328V86.3349ZM102.173 89.2819V89.9446H101.591V89.925C101.724 89.9184 101.837 89.8661 101.931 89.7702C102.025 89.6743 102.071 89.5588 102.071 89.4236V89.2841H102.171L102.173 89.2819ZM102.173 90.204V90.8666H102.073V90.7162C102.073 90.5832 102.027 90.4677 101.933 90.3696C101.84 90.2737 101.726 90.2236 101.593 90.2236V90.204H102.175H102.173ZM102.605 86.797V87.5992H102.504V87.4183C102.504 87.257 102.448 87.1196 102.334 87.0019C102.221 86.8842 102.082 86.8232 101.914 86.8167V86.797H102.605Z" fill="#14855B"/>
<path d="M23.6085 100.624H23.5518C23.5387 100.297 23.4167 100.018 23.1834 99.7866C22.9502 99.5534 22.6712 99.4379 22.3464 99.4379H22.1023V99.2504H23.6085V100.626V100.624ZM23.6085 111.058V112.433H22.1023V112.246H22.3464C22.6734 112.246 22.9524 112.13 23.1834 111.897C23.4167 111.666 23.5387 111.385 23.5518 111.06H23.6085V111.058ZM26.3767 99.2483V112.431H23.5518V99.2483H26.3767ZM31.5754 99.2483V100.059H26.3201V99.2483H31.5754ZM30.6534 105.539V106.33H26.3222V105.539H30.6534ZM31.3509 111.623L31.8021 112.433H26.3222V111.623H31.3509ZM32.7263 108.591L31.8609 112.433H28.1685L28.8464 111.623C29.4741 111.623 30.0256 111.501 30.503 111.256C30.9803 111.012 31.3879 110.659 31.728 110.201C32.068 109.744 32.3361 109.207 32.5388 108.591H32.7263ZM30.6556 103.769V105.576H28.866V105.539C29.3303 105.526 29.7139 105.367 30.0147 105.059C30.3155 104.752 30.4659 104.373 30.4659 103.919V103.769H30.6534H30.6556ZM30.6556 106.293V108.1H30.4681V107.93C30.4681 107.479 30.3177 107.102 30.0169 106.801C29.7161 106.5 29.3325 106.343 28.8682 106.33V106.293H30.6577H30.6556ZM31.5776 98.9104V99.4575L29.2801 99.2504C29.557 99.2504 29.8491 99.2308 30.1564 99.1938C30.4637 99.1567 30.7493 99.1131 31.013 99.0608C31.2768 99.0107 31.4642 98.9605 31.5776 98.9104ZM31.5776 100.002V102.206H31.3901V101.979C31.3901 101.402 31.2179 100.938 30.8713 100.587C30.5269 100.236 30.0583 100.053 29.4676 100.039V100.002H31.5776Z" fill="black"/>
<path d="M36.2892 110.935V112.271H34.7263V112.084H35.0838C35.3977 112.084 35.668 111.97 35.8947 111.746C36.1213 111.519 36.2325 111.249 36.2325 110.935H36.2892ZM36.1955 98.8069L38.907 101.688L38.9267 112.273H36.2325V101.161C36.2325 100.457 36.1562 99.6722 36.0058 98.8069H36.1933H36.1955ZM36.1955 98.8069L48.2123 110.257L48.439 112.537L36.4221 101.104L36.1955 98.8069ZM38.9267 110.935C38.9267 111.249 39.04 111.519 39.2645 111.746C39.4912 111.972 39.7615 112.084 40.0754 112.084H40.4328V112.271H38.87V110.935H38.9267ZM44.182 99.0881H45.7448V100.424H45.7078C45.6947 100.097 45.5792 99.8248 45.359 99.6047C45.1389 99.3845 44.8664 99.2755 44.5395 99.2755H44.182V99.0881ZM48.3823 99.0881V110.124C48.3823 110.588 48.4019 111.007 48.439 111.377C48.476 111.748 48.5327 112.134 48.609 112.535H48.439L45.7078 109.483V99.0859H48.3823V99.0881ZM49.8885 99.0881V99.2755H49.5485C49.2346 99.2755 48.9643 99.3845 48.7398 99.6047C48.5131 99.8248 48.3954 100.097 48.3823 100.424H48.3256V99.0881H49.8885Z" fill="black"/>
<path d="M53.3946 100.457H53.3379C53.3249 100.13 53.2028 99.851 52.9718 99.6199C52.7385 99.3867 52.4595 99.2711 52.1326 99.2711H51.8884V99.0837H53.3946V100.459V100.457ZM53.3946 110.891V112.267H51.8884V112.079H52.1326C52.4595 112.079 52.7385 111.964 52.9718 111.73C53.205 111.499 53.3271 111.218 53.3379 110.893H53.3946V110.891ZM56.1629 99.0815V112.265H53.3379V99.0815H56.1629ZM58.347 99.0815C58.9115 99.0815 59.4652 99.1447 60.0036 99.269C60.5441 99.3954 61.0237 99.5959 61.4444 99.8706C61.865 100.147 62.2007 100.511 62.4514 100.963C62.7021 101.414 62.8285 101.974 62.8285 102.639C62.8285 103.166 62.7195 103.692 62.4993 104.21C62.2792 104.731 61.9435 105.178 61.4923 105.547C61.0411 105.917 60.4569 106.139 59.7398 106.216C60.1409 106.342 60.5093 106.567 60.8406 106.894C61.1741 107.221 61.4465 107.548 61.6602 107.872C61.6732 107.899 61.7452 108.01 61.8759 108.21C62.0067 108.411 62.1702 108.659 62.3664 108.953C62.5604 109.248 62.7653 109.546 62.9789 109.847C63.1925 110.148 63.3865 110.412 63.5631 110.638C63.8399 110.976 64.0905 111.251 64.3172 111.458C64.5439 111.665 64.7815 111.815 65.0322 111.909C65.2829 112.003 65.5728 112.057 65.8975 112.068V112.256H64.0513C63.3734 112.256 62.7587 112.193 62.2051 112.068C61.6514 111.942 61.1632 111.739 60.7359 111.456C60.3087 111.172 59.9382 110.787 59.6243 110.298C59.524 110.148 59.4129 109.956 59.2951 109.725C59.1753 109.492 59.0532 109.246 58.929 108.982C58.8025 108.718 58.6805 108.463 58.5628 108.219C58.4429 107.975 58.3404 107.752 58.2511 107.55C58.1639 107.349 58.1007 107.192 58.0636 107.079C57.9001 106.678 57.7083 106.377 57.4903 106.174C57.2702 105.974 57.0348 105.854 56.7841 105.817V105.629H57.3683C57.7083 105.629 58.0374 105.56 58.3579 105.422C58.6783 105.285 58.9638 105.058 59.2145 104.744C59.4652 104.431 59.6417 103.997 59.742 103.445C59.766 103.332 59.7899 103.201 59.8074 103.051C59.827 102.9 59.8292 102.73 59.8161 102.543C59.779 101.638 59.5524 100.978 59.1382 100.555C58.7241 100.134 58.2096 99.9185 57.595 99.9054C57.4184 99.8924 57.2288 99.8902 57.0217 99.8967C56.8146 99.9033 56.6272 99.9054 56.4571 99.9054H56.1084C56.1084 99.8924 56.0931 99.8204 56.0604 99.6897C56.0299 99.5567 55.982 99.354 55.9187 99.0771H58.3491L58.347 99.0815ZM56.1062 110.891H56.1629C56.1629 111.218 56.2828 111.497 56.5204 111.728C56.7579 111.962 57.0413 112.077 57.3683 112.077H57.595V112.265H56.1062V110.889V110.891Z" fill="black"/>
<rect x="67.8977" y="97.6719" width="48" height="16" rx="8" fill="#14855B"/>
<path d="M76.8066 108.776C77.1266 108.776 77.4146 108.731 77.6706 108.64C77.9266 108.549 78.1426 108.427 78.3186 108.272C78.5 108.117 78.6386 107.936 78.7346 107.728C78.8306 107.52 78.8786 107.299 78.8786 107.064C78.8786 106.845 78.8493 106.656 78.7906 106.496C78.732 106.331 78.6493 106.184 78.5426 106.056C78.436 105.928 78.308 105.819 78.1586 105.728C78.0146 105.632 77.8546 105.547 77.6786 105.472L76.8706 105.128C76.7533 105.08 76.636 105.032 76.5186 104.984C76.4066 104.931 76.3053 104.869 76.2146 104.8C76.1293 104.731 76.0573 104.653 75.9986 104.568C75.9453 104.477 75.9186 104.368 75.9186 104.24C75.9186 104 76.0066 103.813 76.1826 103.68C76.364 103.547 76.6066 103.48 76.9106 103.48C77.172 103.48 77.4066 103.528 77.6146 103.624C77.8226 103.715 78.02 103.843 78.2066 104.008L78.6946 103.416C78.4706 103.187 78.204 103.005 77.8946 102.872C77.5906 102.739 77.2626 102.672 76.9106 102.672C76.6333 102.672 76.3746 102.715 76.1346 102.8C75.9 102.88 75.6946 102.992 75.5186 103.136C75.348 103.28 75.2146 103.451 75.1186 103.648C75.0226 103.845 74.9746 104.061 74.9746 104.296C74.9746 104.509 75.0093 104.699 75.0786 104.864C75.1533 105.029 75.2466 105.176 75.3586 105.304C75.476 105.427 75.604 105.533 75.7426 105.624C75.8866 105.709 76.0306 105.781 76.1746 105.84L76.9906 106.192C77.1293 106.251 77.2546 106.309 77.3666 106.368C77.484 106.421 77.5853 106.483 77.6706 106.552C77.756 106.621 77.82 106.704 77.8626 106.8C77.9106 106.891 77.9346 107.003 77.9346 107.136C77.9346 107.392 77.8386 107.595 77.6466 107.744C77.4546 107.893 77.18 107.968 76.8226 107.968C76.5346 107.968 76.2546 107.907 75.9826 107.784C75.7106 107.656 75.468 107.485 75.2546 107.272L74.7106 107.912C74.9826 108.184 75.2973 108.397 75.6546 108.552C76.0173 108.701 76.4013 108.776 76.8066 108.776ZM81.1673 108.776C81.3273 108.776 81.4793 108.76 81.6233 108.728C81.7726 108.696 81.9086 108.659 82.0313 108.616L81.8633 107.936C81.7993 107.963 81.7219 107.987 81.6313 108.008C81.5459 108.029 81.4659 108.04 81.3913 108.04C81.1619 108.04 80.9966 107.976 80.8953 107.848C80.7993 107.715 80.7513 107.512 80.7513 107.24V105.008H81.8953V104.272H80.7513V103.056H79.9753L79.8713 104.272L79.1913 104.32V105.008H79.8313V107.232C79.8313 107.461 79.8526 107.672 79.8953 107.864C79.9433 108.056 80.0206 108.219 80.1273 108.352C80.2339 108.485 80.3726 108.589 80.5433 108.664C80.7139 108.739 80.9219 108.776 81.1673 108.776ZM83.7038 108.776C83.9758 108.776 84.2265 108.723 84.4558 108.616C84.6852 108.504 84.9012 108.363 85.1038 108.192H85.1278L85.2078 108.672H85.9598V106.024C85.9598 105.427 85.8292 104.968 85.5678 104.648C85.3118 104.323 84.9092 104.16 84.3598 104.16C84.0078 104.16 83.6825 104.216 83.3838 104.328C83.0905 104.435 82.8292 104.56 82.5998 104.704L82.8718 105.376C83.0585 105.253 83.2665 105.147 83.4958 105.056C83.7252 104.96 83.9598 104.912 84.1998 104.912C84.3598 104.912 84.4932 104.939 84.5998 104.992C84.7118 105.04 84.7998 105.109 84.8638 105.2C84.9278 105.285 84.9732 105.387 84.9998 105.504C85.0265 105.621 85.0398 105.744 85.0398 105.872C84.5865 105.904 84.1918 105.947 83.8558 106C83.5252 106.048 83.2478 106.133 83.0238 106.256C82.7945 106.395 82.6345 106.576 82.5438 106.8C82.4532 107.024 82.4078 107.259 82.4078 107.504C82.4078 107.696 82.4398 107.872 82.5038 108.032C82.5678 108.187 82.6558 108.32 82.7678 108.432C82.8852 108.544 83.0212 108.629 83.1758 108.688C83.3358 108.747 83.5118 108.776 83.7038 108.776ZM83.9838 108.048C83.7865 108.048 83.6212 108.003 83.4878 107.912C83.3598 107.821 83.2958 107.664 83.2958 107.44C83.2958 107.349 83.2985 107.253 83.3038 107.152C83.3145 107.045 83.3785 106.939 83.4958 106.832C83.5652 106.768 83.6452 106.72 83.7358 106.688C83.8265 106.651 83.9332 106.621 84.0558 106.6C84.1785 106.573 84.3198 106.552 84.4798 106.536C84.6398 106.52 84.8265 106.499 85.0398 106.472V107.56C84.8585 107.725 84.6852 107.848 84.5198 107.928C84.3545 108.008 84.1758 108.048 83.9838 108.048ZM87.2654 104.272V108.672H88.1774V105.552C88.3747 105.355 88.5534 105.205 88.7134 105.104C88.8734 105.003 89.0547 104.952 89.2574 104.952C89.5187 104.952 89.7081 105.035 89.8254 105.2C89.9427 105.36 90.0014 105.632 90.0014 106.016V108.672H90.9214V105.904C90.9214 105.339 90.8121 104.907 90.5934 104.608C90.3801 104.309 90.0387 104.16 89.5694 104.16C89.2707 104.16 89.0041 104.232 88.7694 104.376C88.5347 104.515 88.3161 104.683 88.1134 104.88H88.0894L88.0174 104.272H87.2654ZM93.7856 108.776C94.0416 108.776 94.2762 108.72 94.4896 108.608C94.7082 108.491 94.9002 108.347 95.0656 108.176H95.0896L95.1696 108.672H95.9216V102.296H95.0016V103.928L95.0416 104.656C94.8602 104.501 94.6816 104.381 94.5056 104.296C94.3296 104.205 94.1136 104.16 93.8576 104.16C93.6122 104.16 93.3749 104.213 93.1456 104.32C92.9216 104.427 92.7216 104.581 92.5456 104.784C92.3696 104.981 92.2282 105.224 92.1216 105.512C92.0202 105.795 91.9696 106.117 91.9696 106.48C91.9696 107.227 92.1296 107.797 92.4496 108.192C92.7749 108.581 93.2202 108.776 93.7856 108.776ZM94.0016 108.016C93.6496 108.016 93.3802 107.883 93.1936 107.616C93.0122 107.349 92.9216 106.965 92.9216 106.464C92.9216 106.224 92.9509 106.011 93.0096 105.824C93.0682 105.632 93.1456 105.472 93.2416 105.344C93.3429 105.211 93.4602 105.109 93.5936 105.04C93.7322 104.965 93.8789 104.928 94.0336 104.928C94.1989 104.928 94.3589 104.957 94.5136 105.016C94.6736 105.075 94.8362 105.179 95.0016 105.328V107.48C94.6922 107.837 94.3589 108.016 94.0016 108.016ZM98.3366 108.776C98.6086 108.776 98.8593 108.723 99.0886 108.616C99.318 108.504 99.534 108.363 99.7366 108.192H99.7606L99.8406 108.672H100.593V106.024C100.593 105.427 100.462 104.968 100.201 104.648C99.9446 104.323 99.542 104.16 98.9926 104.16C98.6406 104.16 98.3153 104.216 98.0166 104.328C97.7233 104.435 97.462 104.56 97.2326 104.704L97.5046 105.376C97.6913 105.253 97.8993 105.147 98.1286 105.056C98.358 104.96 98.5926 104.912 98.8326 104.912C98.9926 104.912 99.126 104.939 99.2326 104.992C99.3446 105.04 99.4326 105.109 99.4966 105.2C99.5606 105.285 99.606 105.387 99.6326 105.504C99.6593 105.621 99.6726 105.744 99.6726 105.872C99.2193 105.904 98.8246 105.947 98.4886 106C98.158 106.048 97.8806 106.133 97.6566 106.256C97.4273 106.395 97.2673 106.576 97.1766 106.8C97.086 107.024 97.0406 107.259 97.0406 107.504C97.0406 107.696 97.0726 107.872 97.1366 108.032C97.2006 108.187 97.2886 108.32 97.4006 108.432C97.518 108.544 97.654 108.629 97.8086 108.688C97.9686 108.747 98.1446 108.776 98.3366 108.776ZM98.6166 108.048C98.4193 108.048 98.254 108.003 98.1206 107.912C97.9926 107.821 97.9286 107.664 97.9286 107.44C97.9286 107.349 97.9313 107.253 97.9366 107.152C97.9473 107.045 98.0113 106.939 98.1286 106.832C98.198 106.768 98.278 106.72 98.3686 106.688C98.4593 106.651 98.566 106.621 98.6886 106.6C98.8113 106.573 98.9526 106.552 99.1126 106.536C99.2726 106.52 99.4593 106.499 99.6726 106.472V107.56C99.4913 107.725 99.318 107.848 99.1526 107.928C98.9873 108.008 98.8086 108.048 98.6166 108.048ZM101.898 104.272V108.672H102.81V105.928C102.949 105.581 103.117 105.339 103.314 105.2C103.512 105.056 103.701 104.984 103.882 104.984C103.973 104.984 104.05 104.989 104.114 105C104.178 105.011 104.248 105.029 104.322 105.056L104.49 104.256C104.421 104.224 104.346 104.2 104.266 104.184C104.192 104.168 104.101 104.16 103.994 104.16C103.754 104.16 103.525 104.24 103.306 104.4C103.088 104.555 102.901 104.776 102.746 105.064H102.722L102.65 104.272H101.898ZM106.614 108.776C106.87 108.776 107.104 108.72 107.318 108.608C107.536 108.491 107.728 108.347 107.894 108.176H107.918L107.998 108.672H108.75V102.296H107.83V103.928L107.87 104.656C107.688 104.501 107.51 104.381 107.334 104.296C107.158 104.205 106.942 104.16 106.686 104.16C106.44 104.16 106.203 104.213 105.974 104.32C105.75 104.427 105.55 104.581 105.374 104.784C105.198 104.981 105.056 105.224 104.95 105.512C104.848 105.795 104.798 106.117 104.798 106.48C104.798 107.227 104.958 107.797 105.278 108.192C105.603 108.581 106.048 108.776 106.614 108.776ZM106.83 108.016C106.478 108.016 106.208 107.883 106.022 107.616C105.84 107.349 105.75 106.965 105.75 106.464C105.75 106.224 105.779 106.011 105.838 105.824C105.896 105.632 105.974 105.472 106.07 105.344C106.171 105.211 106.288 105.109 106.422 105.04C106.56 104.965 106.707 104.928 106.862 104.928C107.027 104.928 107.187 104.957 107.342 105.016C107.502 105.075 107.664 105.179 107.83 105.328V107.48C107.52 107.837 107.187 108.016 106.83 108.016Z" fill="white"/>
<defs>
<linearGradient id="paint0_linear_3410_55711" x1="68.9979" y1="12.9183" x2="68.9979" y2="84.3262" gradientUnits="userSpaceOnUse">
<stop stop-color="#0D7E54"/>
<stop offset="1" stop-color="#14855B"/>
</linearGradient>
</defs>
</svg>
