<svg width="137" height="114" viewBox="0 0 137 114" fill="none" xmlns="http://www.w3.org/2000/svg">
<g clip-path="url(#clip0_1886_17330)">
<path d="M105.669 29.2608C105.348 27.7742 104.882 26.3181 104.254 24.934C103.171 22.5428 101.586 20.3304 99.4348 18.7915C97.6888 17.5425 95.6835 16.6663 93.6084 16.1301C90.7094 15.3803 87.6577 15.2582 84.7064 15.7617C82.5092 16.1344 80.3796 16.8559 78.3786 17.8303C75.6867 19.1381 73.241 20.9516 71.2051 23.1488C71.0635 23.3014 69.6728 24.7662 69.712 24.8534C68.4543 23.0049 67.068 20.8971 65.6316 19.2689C62.6519 15.8947 58.7 13.3771 54.1836 12.7602C47.8145 11.8905 40.8611 14.4669 36.469 19.1359C31.3052 24.6223 30.2044 32.465 31.3379 39.669C32.1836 45.0376 34.1018 50.2123 36.7327 54.9554C39.9892 60.8276 44.4446 66.1112 49.4798 70.5383C51.2911 68.7029 52.5009 68.2452 52.5009 68.2452L50.4454 66.181C48.7082 64.4895 47.0886 62.676 45.5933 60.7709C41.138 55.0905 37.6918 48.4184 36.6695 41.2122C35.9894 36.4255 36.081 31.022 38.3239 26.632C40.5778 22.2224 46.2625 18.8417 51.1778 18.7893C56.7296 18.7305 61.3048 22.5777 64.5526 26.7279C65.5487 28.0009 66.5819 29.3959 67.5977 30.6536C68.1295 31.3141 68.5001 32.1009 69.5943 32.0857C70.4074 32.0748 70.9893 31.4318 71.4384 30.8258C73.1582 28.5022 74.878 26.3748 77.1667 24.5765C80.1311 22.2486 80.8068 21.7516 82.9495 20.932C88.1721 18.9332 93.8285 19.9642 98.2447 23.3275C103.589 27.3971 104.235 35.4141 102.842 41.5152C102.14 44.5908 100.915 47.5312 99.4108 50.2973C98.2599 52.4138 96.8605 54.4824 95.1865 56.2218C94.7571 56.6687 93.9506 57.6757 93.4711 58.0681C93.4188 57.8435 93.3926 57.5667 93.4602 57.3553C93.6106 56.8866 93.7958 56.4289 93.8373 55.9341C93.9179 54.9619 93.7217 53.9854 93.0242 53.2639C92.1262 52.3354 90.8772 52.1566 89.6718 52.2351C88.9351 52.2831 87.5051 52.586 86.7684 52.6166L84.872 52.5337C85.4649 51.9038 86.06 51.2717 86.6529 50.6395C87.1324 50.1295 87.612 49.6216 88.0893 49.1116C88.5732 48.5971 89.2184 48.0936 89.6042 47.5095C89.9748 46.9471 89.9704 46.1406 89.9879 45.4867C90.0097 44.6976 89.9661 43.9085 89.8985 43.1217C89.6565 41.8879 89.4299 40.652 89.2075 39.4161C88.752 36.8964 88.3225 34.37 87.9542 31.835C87.7776 30.6144 87.5618 29.3371 87.455 28.0859C87.3373 26.6952 87.2959 25.4789 87.333 24.3062C87.1956 24.3498 87.0452 24.3782 86.9319 24.4675C86.2496 24.995 85.9292 25.8386 85.8071 26.6691C85.6219 27.9486 85.7221 29.2455 85.5804 30.5272C84.3554 28.9556 83.5838 27.105 83.0956 24.9623C83.0956 24.9623 81.5632 25.4593 82.0776 30.2286C82.0776 30.2286 80.2772 29.5136 79.475 27.3404C79.475 27.3404 77.9885 28.3976 79.8172 32.0574C78.6467 31.5517 77.6157 30.4073 76.4997 29.0559C76.4997 29.0559 75.109 30.2373 77.7574 34.3177L74.5903 32.2688C74.5903 32.2688 73.411 33.9755 75.9286 36.9487L73.1931 34.9368C73.1931 34.9368 71.9223 36.5454 74.4006 39.2723L72.2688 38.3786C72.1817 38.4025 71.8743 39.8739 73.156 41.0945L71.5168 40.5736C71.2727 40.7479 71.3991 40.7131 71.3163 40.9986C71.2226 41.3212 71.2422 41.6634 71.3163 41.9882C71.3795 42.2607 71.9048 43.0584 71.7065 43.2437C71.1942 43.7211 69.7905 43.0606 69.409 42.5833C69.0516 42.1364 68.7028 41.622 68.2342 41.282C67.8004 40.9681 67.2685 40.8286 66.7759 40.6346C66.0217 40.3403 65.3417 39.839 64.6877 39.3682C63.7941 38.7251 62.9374 38.0276 62.0699 37.3519C60.6008 36.5302 59.3104 35.5689 57.9916 34.5313C57.2898 33.9777 56.5922 33.4153 55.9318 32.8115C55.5438 32.4562 55.0141 32.0399 54.807 31.5364C54.807 31.5364 49.24 25.5116 48.6297 23.3384C48.6297 23.3384 47.8668 22.423 48.0957 23.9858C48.0957 23.9858 48.743 26.0827 49.4689 26.9982C49.4689 26.9982 47.3916 24.7683 46.8489 23.6523C46.8489 23.6523 45.99 22.5952 46.2778 23.9379C46.2778 23.9379 46.8728 25.8255 47.5224 26.4533C47.2281 26.1917 46.3606 25.3743 46.0772 24.5961C46.0772 24.5961 45.2184 23.9967 45.5345 25.1389C45.5345 25.1389 46.2494 27.5693 48.7365 29.5136L48.9174 29.7141C48.9174 29.7141 48.2788 29.8863 47.8515 29.5703C47.8515 29.5703 47.1082 29.0842 47.5376 29.943C47.5376 29.943 48.4531 31.2574 49.6825 32.3167L50.0552 32.6306C50.0552 32.6306 50.3691 32.9162 50.0269 32.9162C50.0269 32.9162 49.8264 33.0012 49.4558 32.744C49.4558 32.744 49.2269 32.659 49.3708 33.2584C49.3708 33.2584 49.8852 34.2872 51.0862 35.0305C51.0862 35.0305 51.5157 35.1439 51.4001 35.3727C51.4001 35.3727 51.2563 35.6299 50.8574 35.4011C50.7375 35.3313 50.4934 35.5253 50.4672 35.6321C50.4214 35.8196 50.5849 36.0223 50.6939 36.1552C50.9925 36.5171 51.2737 36.8942 51.5789 37.2473L52.1434 37.8424C52.1434 37.8424 52.3156 37.8315 52.2568 38.5464C52.2568 38.5464 52.1129 39.5469 52.7995 40.6913C53.0088 41.0378 53.266 41.367 53.5188 41.6809C53.7455 41.9664 53.9853 42.241 54.2469 42.4983C54.3689 42.6181 54.661 42.7947 54.6741 42.9734C54.6937 43.2328 54.6392 43.4116 54.77 43.6426C54.9204 43.9107 55.28 44.1614 55.5394 44.3009C55.559 44.3118 55.5808 44.3227 55.5917 44.3423C55.6026 44.3576 55.6048 44.3772 55.607 44.3968C55.6593 44.8458 55.5569 45.1379 55.8882 45.4823C56.0517 45.6501 56.4135 45.9161 56.6184 46.0207C56.6315 46.0272 56.6446 46.0338 56.6533 46.0469C56.6598 46.0578 56.662 46.0708 56.6642 46.0839C56.7165 46.4327 56.6119 46.5961 56.8189 46.8948C56.9541 47.0888 57.6625 47.5182 57.6625 47.5182C57.7301 47.5443 57.8129 47.9105 57.8347 47.9737C57.9262 48.2375 57.8805 48.3922 58.0003 48.6451C58.1072 48.8696 58.3992 49.1726 58.6085 49.299C58.6979 49.3535 58.7981 49.4036 58.8722 49.4799C58.9725 49.5802 58.979 49.6565 58.9681 49.7894C58.942 50.112 59.3779 50.5197 59.8989 50.803C60.0231 50.8706 60.3087 50.9643 60.3871 51.0951C60.4046 51.1234 60.4089 51.1583 60.4133 51.191C60.4613 51.5376 60.4525 51.7577 60.7969 51.9735C61.0302 52.1196 61.2721 52.3484 61.4966 52.4923C61.6623 52.5969 61.7211 52.7953 61.7517 52.9784C61.7604 53.0242 61.7669 53.0743 61.7887 53.1157C61.9217 53.3577 62.362 53.519 62.6039 53.6062C62.9265 53.7217 63.2666 53.7871 63.6066 53.8285C63.6197 53.8285 63.6328 53.8328 63.6415 53.8416C63.6524 53.8525 63.6524 53.8699 63.6524 53.8852C63.6153 54.744 63.624 55.618 63.8551 56.4551C64.2518 57.8871 65.1302 59.0293 65.8386 60.3045C66.1198 60.808 65.3308 61.124 65.0191 61.3268C64.363 61.754 63.7657 62.2662 63.1794 62.7828C62.3838 63.4847 61.6013 64.1996 60.8187 64.9189C60.422 65.2851 60.0188 65.6448 59.6308 66.0219C59.1382 66.4993 58.687 66.6104 58.0548 66.8088C57.6777 66.9265 57.305 67.0551 56.9366 67.1924C56.2936 67.43 55.6637 67.6959 55.0446 67.9902C54.297 68.3455 53.5581 68.7378 52.8649 69.1912C52.8039 69.2326 52.7407 69.2719 52.6818 69.3155C49.4035 70.2309 49.6694 73.3959 49.6694 73.3959C47.954 76.4083 50.5849 78.0082 50.5849 78.0082C51.1189 80.2185 58.4145 77.6311 58.4145 77.6311C60.6465 79.3553 67.6522 83.9937 67.6522 83.9937L65.9062 78.4267C70.536 78.1019 72.5827 77.0557 72.5827 77.0557C66.255 76.8268 61.7843 74.0629 61.7843 74.0629C62.5734 73.2215 63.7025 71.9202 64.7095 71.3775C65.1041 71.1639 65.6229 70.7475 66.0544 70.8565C66.3879 70.9415 66.6691 71.2096 66.9983 71.3099C67.3775 71.4276 67.7721 71.4886 68.1666 71.5366C68.9884 71.6347 69.8232 71.6303 70.6493 71.5758C71.5648 71.5148 72.6568 71.4865 73.5353 71.1835C75.4883 70.5121 77.2997 69.4724 78.9366 68.2212C79.8347 67.5346 80.6826 66.787 81.476 65.9848C81.9011 65.5554 82.3087 65.0737 82.7163 64.616C83.1174 64.1669 83.5271 63.6634 84.0655 63.3779C84.0873 63.3648 84.1157 63.3474 84.1091 63.3212C84.1048 63.2972 84.0764 63.2885 84.0525 63.2841C83.7015 63.2275 83.3397 63.2384 82.9866 63.1926C81.3605 62.9855 79.7649 62.652 78.274 61.9523C76.8376 61.2744 75.4818 60.4222 74.1761 59.5219C72.9511 58.6762 71.761 57.7738 70.6275 56.8082C70.0194 56.2916 69.396 55.7488 68.9644 55.0644L68.9208 54.9772C68.9208 54.9772 69.0712 54.9859 69.1649 55.0055C70.2439 55.2083 72.8857 56.466 72.8857 56.466L73.0666 52.2329C73.1102 52.3506 73.1538 52.4662 73.2018 52.5817C73.3892 53.0416 73.6007 53.4906 73.8295 53.9309C74.1587 54.5631 74.527 55.1777 74.9325 55.7663C75.4229 56.4812 75.9678 57.1591 76.5673 57.7847C77.243 58.4931 77.9863 59.1339 78.7906 59.6898C79.6821 60.3023 80.6477 60.8058 81.6635 61.1785C82.7359 61.5731 83.8628 61.9153 85.0181 61.8172C85.0769 61.8128 85.4453 61.7627 85.4627 61.8412C85.5216 62.1333 85.1554 62.4188 84.9658 62.5496C84.7086 62.7261 84.6017 62.8264 84.3227 63.0793C84.2813 63.1163 84.2268 63.1926 84.2595 63.2384C84.2813 63.2711 84.3358 63.2624 84.3772 63.2624C86.7488 63.2493 88.9154 62.4929 91.0232 61.4619C91.1758 61.3878 93.2553 60.3568 93.1681 60.2347C92.8934 59.8511 92.597 59.4849 92.2809 59.1361C90.8641 59.9208 89.3209 60.7557 87.7427 61.1524C87.3177 61.2592 87.0845 61.3507 86.4654 61.4554C86.3652 61.4728 86.2496 61.5164 86.2453 61.3812C86.2409 61.2243 86.4131 61.1066 86.5352 61.0151C87.1084 60.5791 87.71 60.0538 88.2332 59.5546C88.9111 58.9094 89.3536 57.6713 90.4325 57.6343C91.6052 57.5951 92.148 58.2795 92.9654 59.4391C93.0242 59.5241 93.3512 60.1192 93.4231 60.056C95.3652 58.3449 97.5908 56.187 99.0664 54.0617C101.852 50.0576 103.94 45.3733 105.135 40.6455C105.728 38.2936 106.022 35.8697 106.066 33.4458C106.087 32.2819 105.919 30.3942 105.675 29.2542L105.669 29.2608Z" fill="url(#paint0_linear_1886_17330)"/>
<path d="M53.8545 10.9815C56.887 10.9815 59.3452 8.52319 59.3452 5.49074C59.3452 2.45829 56.887 0 53.8545 0C50.8221 0 48.3638 2.45829 48.3638 5.49074C48.3638 8.52319 50.8221 10.9815 53.8545 10.9815Z" fill="#3C90C6"/>
<path d="M86.8822 13.8222C89.5008 13.3948 91.2771 10.9255 90.8497 8.3069C90.4223 5.6883 87.953 3.912 85.3344 4.3394C82.7158 4.7668 80.9395 7.23607 81.3669 9.85466C81.7943 12.4733 84.2636 14.2496 86.8822 13.8222Z" fill="#3C90C6"/>
<path d="M36.2181 86.0459C36.3249 86.0459 36.4404 86.0524 36.5647 86.0655C36.6889 86.0786 36.8088 86.0982 36.9265 86.12C37.0442 86.144 37.151 86.1658 37.2469 86.1898C37.3428 86.2137 37.4191 86.2377 37.4714 86.2639V87.3755H37.3821C37.3821 87.0551 37.2709 86.8023 37.0507 86.6192C36.8306 86.4361 36.5625 86.3445 36.2486 86.3445C35.8802 86.3445 35.5838 86.4601 35.3571 86.6911C35.1304 86.9222 35.0171 87.1903 35.0171 87.4976C35.0171 87.624 35.0454 87.7722 35.1021 87.9444C35.1587 88.1145 35.2634 88.2736 35.4181 88.4196L37.393 90.2441C37.5935 90.4315 37.7265 90.6321 37.794 90.8457C37.8616 91.0593 37.8943 91.2664 37.8943 91.4669C37.8943 92.0205 37.7265 92.4717 37.3886 92.8205C37.0507 93.1693 36.5952 93.3415 36.0197 93.3415C35.8584 93.3415 35.671 93.324 35.453 93.2913C35.235 93.2586 35.0258 93.1998 34.8209 93.1169C34.616 93.0341 34.4481 92.9251 34.3152 92.7922C34.2956 92.6854 34.2847 92.5524 34.2847 92.3911C34.2847 92.2298 34.2977 92.062 34.3239 91.8854C34.3501 91.7088 34.3871 91.5475 34.4351 91.3993H34.5244C34.4917 91.7394 34.5353 92.038 34.6552 92.2908C34.7751 92.5459 34.9517 92.7377 35.1805 92.8663C35.4116 92.9971 35.6732 93.0559 35.9674 93.0407C36.3358 93.021 36.6497 92.8924 36.9156 92.6548C37.1815 92.4172 37.3123 92.099 37.3123 91.6979C37.3123 91.5039 37.2796 91.3296 37.212 91.1726C37.1445 91.0157 37.0486 90.8805 36.9221 90.7672L34.9974 88.9842C34.7969 88.7967 34.6574 88.5918 34.5768 88.3673C34.4961 88.1428 34.4569 87.9357 34.4569 87.7417C34.4569 87.4605 34.5244 87.1903 34.6574 86.9309C34.7904 86.6693 34.9909 86.4579 35.2546 86.2944C35.5184 86.1309 35.841 86.0481 36.2224 86.0481L36.2181 86.0459ZM37.4714 86.1462V86.3576H36.7085V86.1462H37.4714Z" fill="#2F5CBB"/>
<path d="M39.7274 92.4695V93.2019H38.6157V93.1017H38.777C38.9579 93.1017 39.1171 93.0472 39.2587 92.936C39.3982 92.8248 39.4833 92.6701 39.5094 92.4695H39.7296H39.7274ZM40.2592 86.0459H40.3595L40.56 86.6366L39.9693 93.2019H39.4288L40.2614 86.0459H40.2592ZM40.0195 92.6308V92.681C40.0195 92.7878 40.0587 92.8859 40.135 92.9774C40.2113 93.0668 40.3028 93.1126 40.4096 93.1126H40.56V93.2019H39.9497V92.6308H40.0195ZM40.3595 86.0459L43.2455 92.2908L43.0144 93.3436L40.1677 87.1706L40.3573 86.0481L40.3595 86.0459ZM45.8917 86.0459L45.9723 86.7172L43.4569 92.3191C43.3566 92.5458 43.2803 92.7376 43.2258 92.8946C43.1714 93.0515 43.1365 93.1997 43.1147 93.3414H43.0144L42.8749 92.7093L45.8917 86.0437V86.0459ZM46.0115 92.6308H46.0813V93.2019H45.471V93.1126H45.6214C45.7347 93.1126 45.8284 93.0668 45.9026 92.9774C45.9767 92.888 46.0137 92.7878 46.0137 92.681V92.6308H46.0115ZM45.981 86.0459L46.842 93.2019H46.0595L45.508 87.1292L45.8895 86.0459H45.9788H45.981ZM46.5434 92.4695H46.7527C46.7853 92.6701 46.8725 92.8248 47.0142 92.936C47.1537 93.0472 47.3107 93.1017 47.485 93.1017H47.6442V93.2019H46.5412V92.4695H46.5434Z" fill="#2F5CBB"/>
<path d="M49.2376 92.4695C49.1918 92.6025 49.1831 92.7158 49.218 92.8096C49.2507 92.9033 49.3073 92.9752 49.3836 93.0254C49.4599 93.0755 49.5384 93.0995 49.619 93.0995H49.7084V93.1997H47.6943V93.0995H47.7837C47.9385 93.0995 48.0954 93.0515 48.2589 92.9534C48.4224 92.8575 48.5575 92.6941 48.6643 92.4674H49.2354L49.2376 92.4695ZM51.3933 86.0459L51.4827 86.7477L48.9673 93.1714H48.3657L50.9312 87.0769C51.0053 86.9091 51.0664 86.7652 51.1165 86.6453C51.1666 86.5254 51.2102 86.4077 51.2473 86.2944C51.2843 86.181 51.3018 86.0982 51.3018 86.0437H51.3912L51.3933 86.0459ZM52.8058 90.4664V90.7672H49.6692V90.4664H52.8058ZM51.3933 86.0459L54.3599 93.1409H53.5077L51.1928 86.9962L51.3933 86.0437V86.0459ZM53.257 92.4695H54.0788C54.179 92.6962 54.312 92.8597 54.4798 92.9556C54.6477 93.0537 54.8068 93.1017 54.9616 93.1017H55.0422V93.2019H52.7862V93.1017H52.8756C53.002 93.1017 53.1153 93.0472 53.2156 92.936C53.3159 92.8248 53.3289 92.6701 53.2548 92.4695H53.257Z" fill="#2F5CBB"/>
<path d="M56.3348 86.9179H56.3043C56.2978 86.7435 56.2324 86.5953 56.1081 86.4711C55.9839 86.3468 55.8357 86.2858 55.6613 86.2858H55.5305V86.1855H56.3327V86.9179H56.3348ZM56.3348 92.4697V93.2021H55.5327V93.1018H55.6635C55.8379 93.1018 55.9861 93.0408 56.1103 92.9165C56.2346 92.7923 56.3 92.644 56.3065 92.4697H56.337H56.3348ZM56.9561 86.1855V93.2021H56.3043V86.1855H56.9561ZM58.2399 86.1855C58.5407 86.1855 58.8132 86.2291 59.0573 86.3163C59.3014 86.4035 59.5063 86.5277 59.6742 86.6912C59.842 86.8547 59.9706 87.053 60.06 87.2819C60.1494 87.513 60.1951 87.7745 60.1951 88.0688C60.1951 88.3892 60.121 88.6966 59.9706 88.9908C59.8202 89.2851 59.6175 89.5227 59.3603 89.708C59.1031 89.891 58.8132 89.9826 58.4928 89.9826C58.6061 90.0284 58.7304 90.1243 58.8633 90.2681C58.9963 90.412 59.114 90.5493 59.2143 90.6845C59.3952 90.946 59.5543 91.1684 59.6894 91.3558C59.8268 91.5433 59.9641 91.7264 60.1058 91.9073C60.2453 92.0882 60.3673 92.2321 60.4676 92.3389C60.6006 92.4849 60.7357 92.6157 60.8687 92.7291C61.0016 92.8424 61.1477 92.934 61.3046 92.9993C61.4616 93.0669 61.6359 93.0996 61.8299 93.0996V93.1999H61.2785C60.9711 93.1999 60.7052 93.1541 60.4807 93.0604C60.2562 92.9666 60.0687 92.8511 59.914 92.7138C59.7592 92.5765 59.6306 92.4457 59.5238 92.3171C59.5042 92.2909 59.4497 92.2125 59.3581 92.086C59.2688 91.9596 59.1619 91.807 59.0377 91.6305C58.9135 91.4539 58.7914 91.2774 58.6715 91.1052C58.5516 90.9308 58.447 90.7826 58.3598 90.6583C58.2726 90.5341 58.2225 90.4621 58.2094 90.4425C58.083 90.2747 57.9413 90.1221 57.7887 89.9804C57.634 89.8409 57.4683 89.769 57.2874 89.769V89.6687C57.4945 89.6753 57.671 89.6753 57.8192 89.6687C57.9936 89.6622 58.1832 89.636 58.3903 89.5881C58.5974 89.5423 58.7914 89.4442 58.9723 89.2982C59.1532 89.1521 59.2905 88.9276 59.3821 88.6268C59.4017 88.5527 59.4192 88.4611 59.4322 88.3522C59.4453 88.241 59.4497 88.1342 59.4431 88.0274C59.4366 87.574 59.3211 87.21 59.0966 86.9397C58.872 86.6694 58.5734 86.5234 58.1985 86.5037C58.011 86.4907 57.8192 86.4863 57.6231 86.4885C57.4269 86.4928 57.1937 86.4929 56.9255 86.4929C56.9255 86.4863 56.9168 86.458 56.8994 86.4078C56.8819 86.3577 56.858 86.2814 56.8253 86.1812H58.2377L58.2399 86.1855ZM56.9277 92.4697H56.9582C56.9582 92.644 57.0215 92.7923 57.1479 92.9165C57.2743 93.0408 57.4247 93.1018 57.5991 93.1018H57.719V93.2021H56.9277V92.4697Z" fill="#2F5CBB"/>
<path d="M61.3657 85.9958C61.4333 86.022 61.5336 86.0503 61.6709 86.0765C61.8082 86.1026 61.9608 86.1266 62.1264 86.1462C62.2943 86.1659 62.4469 86.1767 62.5886 86.1767L61.3657 86.2879V85.998V85.9958ZM67.1682 86.1767V86.4776H61.3657V86.1767H67.1682ZM62.0567 86.447V86.4776C61.8889 86.4841 61.7494 86.5451 61.636 86.6585C61.5227 86.7718 61.466 86.9135 61.466 87.0792V87.2492L61.3657 87.2601V86.4492H62.0567V86.447ZM63.9705 92.4696V93.202H63.1684V93.1018H63.2991C63.4735 93.1018 63.6217 93.0407 63.746 92.9165C63.8702 92.7922 63.9356 92.644 63.9422 92.4696H63.9727H63.9705ZM64.5917 86.216V93.202H63.94V86.216H64.5917ZM64.5612 92.4696H64.5917C64.5983 92.644 64.6637 92.7922 64.7879 92.9165C64.9121 93.0407 65.0604 93.1018 65.2347 93.1018H65.3655V93.202H64.5634V92.4696H64.5612ZM67.166 85.9958V86.2857L65.9432 86.1746C66.0892 86.1746 66.2461 86.1637 66.4096 86.1441C66.5731 86.1244 66.7257 86.1005 66.8652 86.0743C67.0047 86.0481 67.1049 86.022 67.166 85.9937V85.9958ZM67.166 86.447V87.2579L67.0657 87.247V87.077C67.0657 86.9091 67.0069 86.7696 66.8913 86.6563C66.7736 86.5429 66.6363 86.4819 66.475 86.4754V86.4449H67.166V86.447Z" fill="#2F5CBB"/>
<path d="M71.1461 92.4893V93.1999H70.3135V93.0997H70.5031C70.671 93.0997 70.8148 93.0386 70.9347 92.9187C71.0546 92.7989 71.1156 92.655 71.1156 92.4872H71.1461V92.4893ZM71.1265 86.0352L71.5668 86.5975L71.5777 93.2021H71.1156V87.2885C71.1156 86.9485 71.0851 86.53 71.0262 86.0352H71.1265ZM71.1265 86.0352L76.9486 92.2496L77.0379 93.3416L71.2159 87.1381L71.1265 86.0352ZM71.5777 92.4893C71.5777 92.6572 71.6388 92.801 71.7586 92.9209C71.8785 93.0408 72.0224 93.1018 72.1902 93.1018H72.3799V93.2021H71.5472V92.4915H71.5777V92.4893ZM75.7781 86.1856H76.6107V86.8962H76.5911C76.5846 86.7218 76.5235 86.5779 76.4058 86.4602C76.2881 86.3425 76.1443 86.2858 75.9699 86.2858H75.7802V86.1856H75.7781ZM77.0401 86.1856V92.0577C77.0401 92.2714 77.0467 92.4763 77.0597 92.6746C77.0728 92.8708 77.0968 93.0931 77.1295 93.3416H77.0401L76.5889 92.8097V86.1856H77.0401ZM77.8423 86.1856V86.2858H77.6613C77.4935 86.2858 77.3496 86.3447 77.2298 86.4602C77.1099 86.5779 77.0467 86.7218 77.0401 86.8962H77.0096V86.1856H77.8423Z" fill="#2F5CBB"/>
<path d="M79.5162 86.1855V86.7872H79.4857C79.4857 86.6411 79.4333 86.519 79.3309 86.4253C79.2284 86.3316 79.102 86.2858 78.956 86.2858H78.7947V86.1855H79.5162ZM80.1374 86.1855V90.5951C80.1374 91.0769 80.2268 91.4997 80.4033 91.8681C80.5799 92.2365 80.8305 92.522 81.151 92.7247C81.4714 92.9274 81.8419 93.0299 82.2626 93.0299C82.7095 93.0299 83.1018 92.934 83.4353 92.74C83.7688 92.546 84.0304 92.2779 84.2178 91.9335C84.4053 91.5891 84.499 91.1858 84.499 90.7259V86.1855H84.9698V90.7259C84.9698 91.2469 84.8587 91.7024 84.6342 92.0948C84.4097 92.485 84.0936 92.7923 83.686 93.0125C83.2784 93.2326 82.8032 93.3438 82.2626 93.3438C81.7221 93.3438 81.2229 93.2348 80.8044 93.019C80.3859 92.8032 80.0633 92.498 79.8322 92.1079C79.6012 91.7177 79.4857 91.2621 79.4857 90.739V86.1877H80.1374V86.1855ZM80.8284 86.1855V86.2858H80.6671C80.521 86.2858 80.3946 86.3316 80.2922 86.4253C80.1897 86.519 80.1374 86.6389 80.1374 86.7872H80.1178V86.1855H80.8305H80.8284ZM84.5274 86.1855V86.7872H84.4968C84.4968 86.6411 84.4445 86.519 84.3421 86.4253C84.2396 86.3316 84.1132 86.2858 83.9672 86.2858H83.8059V86.1855H84.5274ZM85.6608 86.1855V86.2858H85.4995C85.3535 86.2858 85.2271 86.3316 85.1246 86.4253C85.02 86.519 84.9698 86.6389 84.9698 86.7872H84.9502V86.1855H85.6608Z" fill="#2F5CBB"/>
<path d="M87.433 86.9179H87.4025C87.3959 86.7435 87.3305 86.5953 87.2063 86.4711C87.082 86.3468 86.9338 86.2858 86.7594 86.2858H86.6287V86.1855H87.4308V86.9179H87.433ZM87.433 92.4697V93.2021H86.6308V93.1018H86.7616C86.936 93.1018 87.0842 93.0408 87.2085 92.9165C87.3327 92.7923 87.3981 92.644 87.4046 92.4697H87.4352H87.433ZM88.0542 86.1855V93.2021H87.4025V86.1855H88.0542ZM89.3381 86.1855C89.6389 86.1855 89.9113 86.2291 90.1555 86.3163C90.3996 86.4035 90.6045 86.5277 90.7723 86.6912C90.9402 86.8547 91.0688 87.053 91.1581 87.2819C91.2475 87.513 91.2933 87.7745 91.2933 88.0688C91.2933 88.3892 91.2192 88.6966 91.0688 88.9908C90.9184 89.2851 90.7157 89.5227 90.4584 89.708C90.2012 89.891 89.9113 89.9826 89.5909 89.9826C89.7043 90.0284 89.8285 90.1243 89.9615 90.2681C90.0944 90.412 90.2121 90.5493 90.3124 90.6845C90.4933 90.946 90.6524 91.1684 90.7876 91.3558C90.9249 91.5433 91.0622 91.7264 91.2039 91.9073C91.3434 92.0882 91.4655 92.2321 91.5657 92.3389C91.6987 92.4849 91.8317 92.6157 91.9668 92.7291C92.0998 92.8424 92.2458 92.934 92.4028 92.9993C92.5597 93.0669 92.7341 93.0996 92.9281 93.0996V93.1999H92.3766C92.0693 93.1999 91.8033 93.1541 91.5788 93.0604C91.3543 92.9666 91.1669 92.8511 91.0121 92.7138C90.8573 92.5765 90.7287 92.4457 90.6219 92.3171C90.6023 92.2909 90.5478 92.2125 90.4563 92.086C90.3669 91.9596 90.2601 91.807 90.1358 91.6305C90.0116 91.4539 89.8895 91.2774 89.7697 91.1052C89.6498 90.9308 89.5451 90.7826 89.458 90.6583C89.3708 90.5341 89.3206 90.4621 89.3076 90.4425C89.1811 90.2747 89.0394 90.1221 88.8869 89.9804C88.7321 89.8409 88.5664 89.769 88.3855 89.769V89.6687C88.5926 89.6753 88.7692 89.6753 88.9174 89.6687C89.0918 89.6622 89.2814 89.636 89.4885 89.5881C89.6955 89.5423 89.8895 89.4442 90.0705 89.2982C90.2514 89.1521 90.3887 88.9276 90.4802 88.6268C90.4999 88.5527 90.5173 88.4611 90.5304 88.3522C90.5435 88.241 90.5478 88.1342 90.5413 88.0274C90.5347 87.574 90.4192 87.21 90.1947 86.9397C89.9702 86.6694 89.6716 86.5234 89.2966 86.5037C89.1092 86.4907 88.9174 86.4863 88.7212 86.4885C88.525 86.4928 88.2918 86.4929 88.0237 86.4929C88.0237 86.4863 88.015 86.458 87.9975 86.4078C87.9801 86.3577 87.9561 86.2814 87.9234 86.1812H89.3359L89.3381 86.1855ZM88.0259 92.4697H88.0564C88.0564 92.644 88.1196 92.7923 88.246 92.9165C88.3724 93.0408 88.5228 93.1018 88.6972 93.1018H88.8171V93.2021H88.0259V92.4697Z" fill="#2F5CBB"/>
<path d="M95.1297 86.0459C95.2365 86.0459 95.3521 86.0524 95.4763 86.0655C95.6005 86.0786 95.7204 86.0982 95.8381 86.12C95.9558 86.144 96.0626 86.1658 96.1586 86.1898C96.2566 86.2137 96.3308 86.2377 96.3852 86.2639V87.3755H96.2959C96.2959 87.0551 96.1847 86.8023 95.9646 86.6192C95.7444 86.4361 95.4763 86.3445 95.1624 86.3445C94.794 86.3445 94.4976 86.4601 94.2709 86.6911C94.0442 86.9222 93.9309 87.1903 93.9309 87.4976C93.9309 87.624 93.9592 87.7722 94.0159 87.9444C94.0726 88.1145 94.1772 88.2736 94.3319 88.4196L96.3068 90.2441C96.5073 90.4315 96.6403 90.6321 96.7078 90.8457C96.7754 91.0593 96.8081 91.2664 96.8081 91.4669C96.8081 92.0205 96.6381 92.4717 96.3024 92.8205C95.9646 93.1671 95.509 93.3415 94.9335 93.3415C94.7744 93.3415 94.5848 93.324 94.3668 93.2913C94.1488 93.2586 93.9396 93.1998 93.7347 93.1169C93.5298 93.0341 93.362 92.9251 93.229 92.7922C93.2094 92.6854 93.1985 92.5524 93.1985 92.3911C93.1985 92.2298 93.2116 92.062 93.2377 91.8854C93.2639 91.7088 93.3009 91.5475 93.3489 91.3993H93.4383C93.4056 91.7394 93.447 92.038 93.569 92.2908C93.6889 92.5459 93.8655 92.7377 94.0944 92.8663C94.3254 92.9971 94.587 93.0559 94.8812 93.0407C95.2496 93.021 95.5635 92.8924 95.8272 92.6548C96.091 92.4172 96.2239 92.099 96.2239 91.6979C96.2239 91.5039 96.1913 91.3296 96.1237 91.1726C96.0561 91.0157 95.9602 90.8805 95.8338 90.7672L93.9091 88.9842C93.7085 88.7967 93.569 88.5918 93.4884 88.3673C93.4077 88.1428 93.3685 87.9357 93.3685 87.7417C93.3685 87.4605 93.4361 87.1903 93.569 86.9309C93.702 86.6693 93.9004 86.4579 94.1641 86.2944C94.4279 86.1309 94.7505 86.0481 95.1319 86.0481L95.1297 86.0459ZM96.3831 86.1462V86.3576H95.6223V86.1462H96.3831Z" fill="#2F5CBB"/>
<path d="M98.7785 86.9179H98.7479C98.7479 86.7436 98.6847 86.5953 98.5583 86.4711C98.4319 86.3469 98.2815 86.2858 98.1071 86.2858H97.9872L97.9785 86.1856H98.7806V86.9179H98.7785ZM98.7785 92.4697V93.2021H97.9763V93.1018H98.1071C98.2815 93.1018 98.4297 93.0408 98.5518 92.9166C98.676 92.7923 98.7414 92.6441 98.7479 92.4697H98.7785ZM99.3997 86.1856V93.2021H98.7479V86.1856H99.3997ZM102.105 86.1856V86.4973H99.3692V86.1856H102.105ZM101.673 89.5925V89.8933H99.367V89.5925H101.673ZM102.105 92.8904V93.2021H99.3692V92.8904H102.105ZM102.715 91.5782L102.133 93.2021H100.47L100.83 92.8904C101.183 92.8904 101.473 92.8359 101.697 92.7247C101.922 92.6136 102.103 92.4588 102.244 92.2583C102.384 92.0577 102.508 91.8311 102.615 91.576H102.715V91.5782ZM102.105 86.0068V86.2967L100.882 86.1856C101.028 86.1856 101.185 86.1747 101.348 86.155C101.512 86.1354 101.664 86.1114 101.804 86.0853C101.943 86.0591 102.044 86.0308 102.105 86.0046V86.0068ZM101.673 88.9538V89.6164H101.091V89.5968C101.224 89.5903 101.337 89.538 101.431 89.4421C101.525 89.3462 101.571 89.2306 101.571 89.0955V88.956H101.671L101.673 88.9538ZM101.673 89.8758V90.5385H101.573V90.3881C101.573 90.2551 101.527 90.1396 101.433 90.0415C101.34 89.9456 101.226 89.8954 101.093 89.8954V89.8758H101.675H101.673ZM102.105 86.4689V87.2711H102.004V87.0901C102.004 86.9288 101.948 86.7915 101.834 86.6738C101.721 86.5561 101.582 86.4951 101.414 86.4885V86.4689H102.105Z" fill="#2F5CBB"/>
<path d="M23.1085 100.296H23.0518C23.0387 99.9686 22.9167 99.6896 22.6834 99.4585C22.4502 99.2253 22.1712 99.1098 21.8464 99.1098H21.6023V98.9223H23.1085V100.298V100.296ZM23.1085 110.73V112.105H21.6023V111.918H21.8464C22.1734 111.918 22.4524 111.802 22.6834 111.569C22.9167 111.338 23.0387 111.057 23.0518 110.732H23.1085V110.73ZM25.8767 98.9201V112.103H23.0518V98.9201H25.8767ZM31.0754 98.9201V99.731H25.8201V98.9201H31.0754ZM30.1534 105.211V106.002H25.8222V105.211H30.1534ZM30.8509 111.294L31.3021 112.105H25.8222V111.294H30.8509ZM32.2263 108.262L31.3609 112.105H27.6685L28.3464 111.294C28.9741 111.294 29.5256 111.172 30.003 110.928C30.4803 110.684 30.8879 110.331 31.228 109.873C31.568 109.416 31.8361 108.879 32.0388 108.262H32.2263ZM30.1556 103.441V105.248H28.366V105.211C28.8303 105.198 29.2139 105.039 29.5147 104.731C29.8155 104.424 29.9659 104.045 29.9659 103.591V103.441H30.1534H30.1556ZM30.1556 105.965V107.772H29.9681V107.602C29.9681 107.151 29.8177 106.774 29.5169 106.473C29.2161 106.172 28.8325 106.015 28.3682 106.002V105.965H30.1577H30.1556ZM31.0776 98.5823V99.1294L28.7801 98.9223C29.057 98.9223 29.3491 98.9027 29.6564 98.8656C29.9637 98.8286 30.2493 98.785 30.513 98.7327C30.7768 98.6825 30.9642 98.6324 31.0776 98.5823ZM31.0776 99.6743V101.878H30.8901V101.651C30.8901 101.074 30.7179 100.609 30.3713 100.258C30.0269 99.9076 29.5583 99.7245 28.9676 99.7114V99.6743H31.0776Z" fill="black"/>
<path d="M35.7892 110.607V111.943H34.2263V111.755H34.5838C34.8977 111.755 35.168 111.642 35.3947 111.418C35.6213 111.191 35.7325 110.921 35.7325 110.607H35.7892ZM35.6955 98.4788L38.407 101.36L38.4267 111.945H35.7325V100.833C35.7325 100.129 35.6562 99.3441 35.5058 98.4788H35.6933H35.6955ZM35.6955 98.4788L47.7123 109.929L47.939 112.209L35.9221 100.776L35.6955 98.4788ZM38.4267 110.607C38.4267 110.921 38.54 111.191 38.7645 111.418C38.9912 111.644 39.2615 111.755 39.5754 111.755H39.9328V111.943H38.37V110.607H38.4267ZM43.682 98.7599H45.2448V100.096H45.2078C45.1947 99.7692 45.0792 99.4967 44.859 99.2765C44.6389 99.0564 44.3664 98.9474 44.0395 98.9474H43.682V98.7599ZM47.8823 98.7599V109.796C47.8823 110.26 47.9019 110.679 47.939 111.049C47.976 111.42 48.0327 111.806 48.109 112.207H47.939L45.2078 109.155V98.7578H47.8823V98.7599ZM49.3885 98.7599V98.9474H49.0485C48.7346 98.9474 48.4643 99.0564 48.2398 99.2765C48.0131 99.4967 47.8954 99.7692 47.8823 100.096H47.8256V98.7599H49.3885Z" fill="black"/>
<path d="M52.8946 100.129H52.8379C52.8249 99.8018 52.7028 99.5228 52.4718 99.2918C52.2385 99.0585 51.9595 98.943 51.6326 98.943H51.3884V98.7556H52.8946V100.131V100.129ZM52.8946 110.563V111.939H51.3884V111.751H51.6326C51.9595 111.751 52.2385 111.636 52.4718 111.402C52.705 111.171 52.8271 110.89 52.8379 110.565H52.8946V110.563ZM55.6629 98.7534V111.936H52.8379V98.7534H55.6629ZM57.847 98.7534C58.4115 98.7534 58.9652 98.8166 59.5036 98.9408C60.0441 99.0673 60.5237 99.2678 60.9444 99.5424C61.365 99.8193 61.7007 100.183 61.9514 100.634C62.2021 101.086 62.3285 101.646 62.3285 102.311C62.3285 102.838 62.2195 103.364 61.9993 103.882C61.7792 104.403 61.4435 104.85 60.9923 105.218C60.5411 105.589 59.9569 105.811 59.2398 105.888C59.6409 106.014 60.0093 106.239 60.3406 106.566C60.6741 106.892 60.9465 107.219 61.1602 107.544C61.1732 107.57 61.2452 107.682 61.3759 107.882C61.5067 108.083 61.6702 108.331 61.8664 108.625C62.0604 108.92 62.2653 109.218 62.4789 109.519C62.6925 109.82 62.8865 110.084 63.0631 110.31C63.3399 110.648 63.5905 110.923 63.8172 111.13C64.0439 111.337 64.2815 111.487 64.5322 111.581C64.7829 111.675 65.0728 111.729 65.3975 111.74V111.928H63.5513C62.8734 111.928 62.2587 111.864 61.7051 111.74C61.1514 111.614 60.6632 111.411 60.2359 111.128C59.8087 110.844 59.4382 110.459 59.1243 109.97C59.024 109.82 58.9129 109.628 58.7951 109.397C58.6753 109.164 58.5532 108.917 58.429 108.654C58.3025 108.39 58.1805 108.135 58.0628 107.891C57.9429 107.647 57.8404 107.424 57.7511 107.222C57.6639 107.021 57.6007 106.864 57.5636 106.751C57.4001 106.35 57.2083 106.049 56.9903 105.846C56.7702 105.646 56.5348 105.526 56.2841 105.489V105.301H56.8683C57.2083 105.301 57.5374 105.232 57.8579 105.094C58.1783 104.957 58.4638 104.73 58.7145 104.416C58.9652 104.102 59.1417 103.669 59.242 103.117C59.266 103.004 59.2899 102.873 59.3074 102.723C59.327 102.572 59.3292 102.402 59.3161 102.215C59.279 101.31 59.0524 100.65 58.6382 100.227C58.2241 99.8062 57.7096 99.5904 57.095 99.5773C56.9184 99.5642 56.7288 99.5621 56.5217 99.5686C56.3146 99.5751 56.1272 99.5773 55.9571 99.5773H55.6084C55.6084 99.5642 55.5931 99.4923 55.5604 99.3615C55.5299 99.2286 55.482 99.0258 55.4187 98.749H57.8491L57.847 98.7534ZM55.6062 110.563H55.6629C55.6629 110.89 55.7828 111.169 56.0204 111.4C56.2579 111.633 56.5413 111.749 56.8683 111.749H57.095V111.936H55.6062V110.561V110.563Z" fill="black"/>
<rect x="67.3977" y="97.3438" width="48" height="16" rx="8" fill="#0D7E54"/>
<path d="M76.3066 108.448C76.6266 108.448 76.9146 108.402 77.1706 108.312C77.4266 108.221 77.6426 108.098 77.8186 107.944C78 107.789 78.1386 107.608 78.2346 107.4C78.3306 107.192 78.3786 106.97 78.3786 106.736C78.3786 106.517 78.3493 106.328 78.2906 106.168C78.232 106.002 78.1493 105.856 78.0426 105.728C77.936 105.6 77.808 105.49 77.6586 105.4C77.5146 105.304 77.3546 105.218 77.1786 105.144L76.3706 104.8C76.2533 104.752 76.136 104.704 76.0186 104.656C75.9066 104.602 75.8053 104.541 75.7146 104.472C75.6293 104.402 75.5573 104.325 75.4986 104.24C75.4453 104.149 75.4186 104.04 75.4186 103.912C75.4186 103.672 75.5066 103.485 75.6826 103.352C75.864 103.218 76.1066 103.152 76.4106 103.152C76.672 103.152 76.9066 103.2 77.1146 103.296C77.3226 103.386 77.52 103.514 77.7066 103.68L78.1946 103.088C77.9706 102.858 77.704 102.677 77.3946 102.544C77.0906 102.41 76.7626 102.344 76.4106 102.344C76.1333 102.344 75.8746 102.386 75.6346 102.472C75.4 102.552 75.1946 102.664 75.0186 102.808C74.848 102.952 74.7146 103.122 74.6186 103.32C74.5226 103.517 74.4746 103.733 74.4746 103.968C74.4746 104.181 74.5093 104.37 74.5786 104.536C74.6533 104.701 74.7466 104.848 74.8586 104.976C74.976 105.098 75.104 105.205 75.2426 105.296C75.3866 105.381 75.5306 105.453 75.6746 105.512L76.4906 105.864C76.6293 105.922 76.7546 105.981 76.8666 106.04C76.984 106.093 77.0853 106.154 77.1706 106.224C77.256 106.293 77.32 106.376 77.3626 106.472C77.4106 106.562 77.4346 106.674 77.4346 106.808C77.4346 107.064 77.3386 107.266 77.1466 107.416C76.9546 107.565 76.68 107.64 76.3226 107.64C76.0346 107.64 75.7546 107.578 75.4826 107.456C75.2106 107.328 74.968 107.157 74.7546 106.944L74.2106 107.584C74.4826 107.856 74.7973 108.069 75.1546 108.224C75.5173 108.373 75.9013 108.448 76.3066 108.448ZM80.6673 108.448C80.8273 108.448 80.9793 108.432 81.1233 108.4C81.2726 108.368 81.4086 108.33 81.5313 108.288L81.3633 107.608C81.2993 107.634 81.2219 107.658 81.1313 107.68C81.0459 107.701 80.9659 107.712 80.8913 107.712C80.6619 107.712 80.4966 107.648 80.3953 107.52C80.2993 107.386 80.2513 107.184 80.2513 106.912V104.68H81.3953V103.944H80.2513V102.728H79.4753L79.3713 103.944L78.6913 103.992V104.68H79.3313V106.904C79.3313 107.133 79.3526 107.344 79.3953 107.536C79.4433 107.728 79.5206 107.89 79.6273 108.024C79.7339 108.157 79.8726 108.261 80.0433 108.336C80.2139 108.41 80.4219 108.448 80.6673 108.448ZM83.2038 108.448C83.4758 108.448 83.7265 108.394 83.9558 108.288C84.1852 108.176 84.4012 108.034 84.6038 107.864H84.6278L84.7078 108.344H85.4598V105.696C85.4598 105.098 85.3292 104.64 85.0678 104.32C84.8118 103.994 84.4092 103.832 83.8598 103.832C83.5078 103.832 83.1825 103.888 82.8838 104C82.5905 104.106 82.3292 104.232 82.0998 104.376L82.3718 105.048C82.5585 104.925 82.7665 104.818 82.9958 104.728C83.2252 104.632 83.4598 104.584 83.6998 104.584C83.8598 104.584 83.9932 104.61 84.0998 104.664C84.2118 104.712 84.2998 104.781 84.3638 104.872C84.4278 104.957 84.4732 105.058 84.4998 105.176C84.5265 105.293 84.5398 105.416 84.5398 105.544C84.0865 105.576 83.6918 105.618 83.3558 105.672C83.0252 105.72 82.7478 105.805 82.5238 105.928C82.2945 106.066 82.1345 106.248 82.0438 106.472C81.9532 106.696 81.9078 106.93 81.9078 107.176C81.9078 107.368 81.9398 107.544 82.0038 107.704C82.0678 107.858 82.1558 107.992 82.2678 108.104C82.3852 108.216 82.5212 108.301 82.6758 108.36C82.8358 108.418 83.0118 108.448 83.2038 108.448ZM83.4838 107.72C83.2865 107.72 83.1212 107.674 82.9878 107.584C82.8598 107.493 82.7958 107.336 82.7958 107.112C82.7958 107.021 82.7985 106.925 82.8038 106.824C82.8145 106.717 82.8785 106.61 82.9958 106.504C83.0652 106.44 83.1452 106.392 83.2358 106.36C83.3265 106.322 83.4332 106.293 83.5558 106.272C83.6785 106.245 83.8198 106.224 83.9798 106.208C84.1398 106.192 84.3265 106.17 84.5398 106.144V107.232C84.3585 107.397 84.1852 107.52 84.0198 107.6C83.8545 107.68 83.6758 107.72 83.4838 107.72ZM86.7654 103.944V108.344H87.6774V105.224C87.8747 105.026 88.0534 104.877 88.2134 104.776C88.3734 104.674 88.5547 104.624 88.7574 104.624C89.0187 104.624 89.2081 104.706 89.3254 104.872C89.4427 105.032 89.5014 105.304 89.5014 105.688V108.344H90.4214V105.576C90.4214 105.01 90.3121 104.578 90.0934 104.28C89.8801 103.981 89.5387 103.832 89.0694 103.832C88.7707 103.832 88.5041 103.904 88.2694 104.048C88.0347 104.186 87.8161 104.354 87.6134 104.552H87.5894L87.5174 103.944H86.7654ZM93.2856 108.448C93.5416 108.448 93.7762 108.392 93.9896 108.28C94.2082 108.162 94.4002 108.018 94.5656 107.848H94.5896L94.6696 108.344H95.4216V101.968H94.5016V103.6L94.5416 104.328C94.3602 104.173 94.1816 104.053 94.0056 103.968C93.8296 103.877 93.6136 103.832 93.3576 103.832C93.1122 103.832 92.8749 103.885 92.6456 103.992C92.4216 104.098 92.2216 104.253 92.0456 104.456C91.8696 104.653 91.7282 104.896 91.6216 105.184C91.5202 105.466 91.4696 105.789 91.4696 106.152C91.4696 106.898 91.6296 107.469 91.9496 107.864C92.2749 108.253 92.7202 108.448 93.2856 108.448ZM93.5016 107.688C93.1496 107.688 92.8802 107.554 92.6936 107.288C92.5122 107.021 92.4216 106.637 92.4216 106.136C92.4216 105.896 92.4509 105.682 92.5096 105.496C92.5682 105.304 92.6456 105.144 92.7416 105.016C92.8429 104.882 92.9602 104.781 93.0936 104.712C93.2322 104.637 93.3789 104.6 93.5336 104.6C93.6989 104.6 93.8589 104.629 94.0136 104.688C94.1736 104.746 94.3362 104.85 94.5016 105V107.152C94.1922 107.509 93.8589 107.688 93.5016 107.688ZM97.8366 108.448C98.1086 108.448 98.3593 108.394 98.5886 108.288C98.818 108.176 99.034 108.034 99.2366 107.864H99.2606L99.3406 108.344H100.093V105.696C100.093 105.098 99.962 104.64 99.7006 104.32C99.4446 103.994 99.042 103.832 98.4926 103.832C98.1406 103.832 97.8153 103.888 97.5166 104C97.2233 104.106 96.962 104.232 96.7326 104.376L97.0046 105.048C97.1913 104.925 97.3993 104.818 97.6286 104.728C97.858 104.632 98.0926 104.584 98.3326 104.584C98.4926 104.584 98.626 104.61 98.7326 104.664C98.8446 104.712 98.9326 104.781 98.9966 104.872C99.0606 104.957 99.106 105.058 99.1326 105.176C99.1593 105.293 99.1726 105.416 99.1726 105.544C98.7193 105.576 98.3246 105.618 97.9886 105.672C97.658 105.72 97.3806 105.805 97.1566 105.928C96.9273 106.066 96.7673 106.248 96.6766 106.472C96.586 106.696 96.5406 106.93 96.5406 107.176C96.5406 107.368 96.5726 107.544 96.6366 107.704C96.7006 107.858 96.7886 107.992 96.9006 108.104C97.018 108.216 97.154 108.301 97.3086 108.36C97.4686 108.418 97.6446 108.448 97.8366 108.448ZM98.1166 107.72C97.9193 107.72 97.754 107.674 97.6206 107.584C97.4926 107.493 97.4286 107.336 97.4286 107.112C97.4286 107.021 97.4313 106.925 97.4366 106.824C97.4473 106.717 97.5113 106.61 97.6286 106.504C97.698 106.44 97.778 106.392 97.8686 106.36C97.9593 106.322 98.066 106.293 98.1886 106.272C98.3113 106.245 98.4526 106.224 98.6126 106.208C98.7726 106.192 98.9593 106.17 99.1726 106.144V107.232C98.9913 107.397 98.818 107.52 98.6526 107.6C98.4873 107.68 98.3086 107.72 98.1166 107.72ZM101.398 103.944V108.344H102.31V105.6C102.449 105.253 102.617 105.01 102.814 104.872C103.012 104.728 103.201 104.656 103.382 104.656C103.473 104.656 103.55 104.661 103.614 104.672C103.678 104.682 103.748 104.701 103.822 104.728L103.99 103.928C103.921 103.896 103.846 103.872 103.766 103.856C103.692 103.84 103.601 103.832 103.494 103.832C103.254 103.832 103.025 103.912 102.806 104.072C102.588 104.226 102.401 104.448 102.246 104.736H102.222L102.15 103.944H101.398ZM106.114 108.448C106.37 108.448 106.604 108.392 106.818 108.28C107.036 108.162 107.228 108.018 107.394 107.848H107.418L107.498 108.344H108.25V101.968H107.33V103.6L107.37 104.328C107.188 104.173 107.01 104.053 106.834 103.968C106.658 103.877 106.442 103.832 106.186 103.832C105.94 103.832 105.703 103.885 105.474 103.992C105.25 104.098 105.05 104.253 104.874 104.456C104.698 104.653 104.556 104.896 104.45 105.184C104.348 105.466 104.298 105.789 104.298 106.152C104.298 106.898 104.458 107.469 104.778 107.864C105.103 108.253 105.548 108.448 106.114 108.448ZM106.33 107.688C105.978 107.688 105.708 107.554 105.522 107.288C105.34 107.021 105.25 106.637 105.25 106.136C105.25 105.896 105.279 105.682 105.338 105.496C105.396 105.304 105.474 105.144 105.57 105.016C105.671 104.882 105.788 104.781 105.922 104.712C106.06 104.637 106.207 104.6 106.362 104.6C106.527 104.6 106.687 104.629 106.842 104.688C107.002 104.746 107.164 104.85 107.33 105V107.152C107.02 107.509 106.687 107.688 106.33 107.688Z" fill="white"/>
</g>
<defs>
<linearGradient id="paint0_linear_1886_17330" x1="68.4979" y1="12.5902" x2="68.4979" y2="83.9981" gradientUnits="userSpaceOnUse">
<stop stop-color="#3C90C6"/>
<stop offset="1" stop-color="#1E61A5"/>
</linearGradient>
<clipPath id="clip0_1886_17330">
<rect width="137" height="113.344" fill="white"/>
</clipPath>
</defs>
</svg>
