<svg width="79" height="114" viewBox="0 0 79 114" fill="none" xmlns="http://www.w3.org/2000/svg">
<path d="M77.0709 29.3918C76.7491 27.8986 76.2805 26.436 75.65 25.0457C74.5618 22.6438 72.97 20.4215 70.809 18.8757C69.0552 17.6211 67.0409 16.7409 64.9565 16.2023C62.0445 15.4491 58.9792 15.3265 56.0146 15.8323C53.8076 16.2067 51.6685 16.9314 49.6585 17.9101C46.9545 19.2238 44.4979 21.0455 42.4529 23.2525C42.3106 23.4057 40.9137 24.8771 40.9531 24.9647C39.6898 23.108 38.2972 20.9907 36.8544 19.3552C33.8613 15.9637 29.8918 13.437 25.3552 12.8174C18.9575 11.9438 11.973 14.5317 7.56117 19.2216C2.37427 24.7348 1.26857 32.6126 2.4071 39.851C3.25662 45.2437 5.18338 50.4416 7.82609 55.2059C11.0972 61.1044 15.5725 66.4117 20.6302 70.8586C22.4497 69.015 23.6649 68.5552 23.6649 68.5552L21.6002 66.4818C19.8552 64.7827 18.2284 62.9611 16.7264 61.0475C12.2511 55.3417 8.78947 48.6396 7.7626 41.4012C7.07948 36.593 7.17144 31.1653 9.42443 26.7557C11.6884 22.3263 17.3985 18.9304 22.3337 18.8779C27.9103 18.8188 32.506 22.6832 35.7684 26.852C36.769 28.1307 37.8068 29.5319 38.8271 30.7953C39.3613 31.4587 39.7335 32.2491 40.8327 32.2338C41.6493 32.2228 42.2339 31.5769 42.685 30.9682C44.4125 28.6342 46.14 26.4973 48.439 24.691C51.4167 22.3526 52.0954 21.8534 54.2477 21.0301C59.4937 19.0224 65.1754 20.058 69.6114 23.4364C74.98 27.5242 75.6281 35.5771 74.229 41.7055C73.524 44.7949 72.2935 47.7485 70.7827 50.527C69.6267 52.653 68.221 54.7308 66.5395 56.478C66.1082 56.9268 65.298 57.9384 64.8164 58.3325C64.7638 58.107 64.7375 57.8289 64.8054 57.6165C64.9565 57.1458 65.1426 56.686 65.1842 56.189C65.2652 55.2125 65.0681 54.2316 64.3675 53.5069C63.4654 52.5741 62.2109 52.3946 61.0001 52.4734C60.26 52.5216 58.8237 52.8259 58.0837 52.8566L56.1788 52.7734C56.7744 52.1406 57.3721 51.5057 57.9676 50.8707C58.4493 50.3584 58.931 49.8482 59.4105 49.3359C59.8966 48.8192 60.5447 48.3134 60.9322 47.7266C61.3044 47.1617 61.3 46.3516 61.3176 45.6948C61.3395 44.9022 61.2957 44.1096 61.2278 43.3192C60.9847 42.0799 60.757 40.8385 60.5337 39.597C60.0761 37.066 59.6448 34.5284 59.2747 31.982C59.0974 30.7559 58.8807 29.4728 58.7734 28.2161C58.6551 26.8192 58.6135 25.5974 58.6507 24.4195C58.5128 24.4633 58.3617 24.4917 58.2479 24.5815C57.5626 25.1114 57.2407 25.9587 57.1181 26.7929C56.932 28.0781 57.0327 29.3809 56.8904 30.6683C55.6599 29.0897 54.8848 27.2308 54.3944 25.0785C54.3944 25.0785 52.8552 25.5777 53.3719 30.3683C53.3719 30.3683 51.5634 29.6502 50.7576 27.4672C50.7576 27.4672 49.2644 28.5291 51.1014 32.2053C49.9256 31.6973 48.89 30.5479 47.769 29.1904C47.769 29.1904 46.3721 30.3771 49.0323 34.4758L45.851 32.4177C45.851 32.4177 44.6665 34.1321 47.1953 37.1185L44.4475 35.0976C44.4475 35.0976 43.1711 36.7135 45.6605 39.4525L43.5192 38.5548C43.4316 38.5789 43.1229 40.0568 44.4103 41.2829L42.7638 40.7596C42.5186 40.9348 42.6456 40.8998 42.5624 41.1866C42.4682 41.5106 42.4879 41.8544 42.5624 42.1806C42.6259 42.4543 43.1535 43.2557 42.9543 43.4418C42.4398 43.9213 41.0297 43.2579 40.6466 42.7784C40.2875 42.3295 39.9372 41.8128 39.4664 41.4712C39.0307 41.1559 38.4965 41.0158 38.0017 40.8209C37.2441 40.5254 36.561 40.0218 35.9041 39.5489C35.0064 38.903 34.146 38.2023 33.2746 37.5236C31.7988 36.6981 30.5027 35.7326 29.178 34.6904C28.473 34.1342 27.7724 33.5694 27.1089 32.9629C26.7192 32.606 26.1872 32.1878 25.9792 31.682C25.9792 31.682 20.3872 25.6303 19.7741 23.4473C19.7741 23.4473 19.0078 22.5278 19.2377 24.0976C19.2377 24.0976 19.888 26.2039 20.6171 27.1235C20.6171 27.1235 18.5305 24.8836 17.9831 23.7626C17.9831 23.7626 17.1205 22.7007 17.4095 24.0494C17.4095 24.0494 18.0072 25.9455 18.6597 26.5761C18.3641 26.3134 17.4927 25.4923 17.2081 24.7107C17.2081 24.7107 16.3454 24.1086 16.6629 25.2559C16.6629 25.2559 17.381 27.6971 19.8792 29.6502L20.061 29.8516C20.061 29.8516 19.4195 30.0246 18.9903 29.7071C18.9903 29.7071 18.2437 29.2188 18.675 30.0815C18.675 30.0815 19.5946 31.4018 20.8295 32.4659L21.2039 32.7811C21.2039 32.7811 21.5192 33.068 21.1754 33.068C21.1754 33.068 20.974 33.1534 20.6018 32.895C20.6018 32.895 20.3719 32.8096 20.5164 33.4117C20.5164 33.4117 21.0331 34.4452 22.2395 35.1918C22.2395 35.1918 22.6708 35.3056 22.5548 35.5355C22.5548 35.5355 22.4103 35.7939 22.0096 35.564C21.8892 35.4939 21.644 35.6888 21.6177 35.7961C21.5717 35.9844 21.7359 36.188 21.8454 36.3215C22.1454 36.685 22.4278 37.0638 22.7343 37.4185L23.3014 38.0162C23.3014 38.0162 23.4744 38.0053 23.4153 38.7234C23.4153 38.7234 23.2708 39.7284 23.9605 40.8779C24.1706 41.226 24.429 41.5566 24.683 41.8719C24.9107 42.1587 25.1537 42.4346 25.4143 42.693C25.5369 42.8134 25.8303 42.9907 25.8434 43.1703C25.8631 43.4308 25.8084 43.6104 25.9398 43.8425C26.0908 44.1118 26.4521 44.3635 26.7126 44.5037C26.7323 44.5146 26.7542 44.5256 26.7652 44.5453C26.7761 44.5606 26.7783 44.5803 26.7805 44.6C26.8331 45.051 26.7302 45.3444 27.063 45.6904C27.2272 45.859 27.5906 46.1261 27.7964 46.2312C27.8096 46.2377 27.8227 46.2443 27.8315 46.2575C27.8381 46.2684 27.8402 46.2815 27.8424 46.2947C27.895 46.645 27.7899 46.8092 27.9979 47.1092C28.1336 47.304 28.8452 47.7354 28.8452 47.7354C28.9131 47.7616 28.9963 48.1295 29.0182 48.193C29.1101 48.4579 29.0642 48.6134 29.1846 48.8673C29.2919 49.0929 29.5853 49.3972 29.7955 49.5242C29.8852 49.5789 29.9859 49.6293 30.0604 49.7059C30.1611 49.8066 30.1677 49.8833 30.1567 50.0168C30.1304 50.3409 30.5683 50.7503 31.0916 51.0349C31.2164 51.1028 31.5032 51.197 31.5821 51.3283C31.5996 51.3568 31.604 51.3918 31.6084 51.4247C31.6565 51.7728 31.6478 51.9939 31.9937 52.2107C32.228 52.3574 32.471 52.5873 32.6965 52.7318C32.8629 52.8369 32.922 53.0361 32.9527 53.22C32.9615 53.266 32.968 53.3164 32.9899 53.358C33.1235 53.601 33.5658 53.763 33.8088 53.8506C34.1328 53.9666 34.4744 54.0323 34.816 54.0739C34.8291 54.0761 34.8422 54.0783 34.851 54.0871C34.8619 54.098 34.8619 54.1155 34.8619 54.1309C34.8247 54.9935 34.8335 55.8715 35.0656 56.7123C35.464 58.1508 36.3464 59.2981 37.058 60.5789C37.3404 61.0869 36.5478 61.4022 36.2347 61.6058C35.5757 62.0349 34.9758 62.5495 34.3868 63.0684C33.5877 63.7734 32.8016 64.4915 32.0156 65.2141C31.6171 65.5819 31.2121 65.9432 30.8223 66.3219C30.3275 66.8014 29.8743 66.9131 29.2393 67.1124C28.8605 67.2306 28.4861 67.3598 28.1161 67.4977C27.4702 67.7364 26.8375 68.0035 26.2156 68.2991C25.4646 68.656 24.7224 69.05 24.0261 69.5055C23.9648 69.5471 23.9013 69.5865 23.8422 69.6303C20.5492 70.5499 20.8163 73.729 20.8163 73.729C19.0932 76.7549 21.7359 78.362 21.7359 78.362C22.2724 80.5821 29.6006 77.9832 29.6006 77.9832C31.8426 79.7151 38.8796 84.3743 38.8796 84.3743L37.1259 78.7823C41.7763 78.4561 43.8323 77.4052 43.8323 77.4052C37.4762 77.1753 32.9855 74.399 32.9855 74.399C33.7781 73.5538 34.9123 72.2467 35.9238 71.7015C36.3201 71.487 36.8412 71.0688 37.2747 71.1782C37.6097 71.2636 37.8922 71.5329 38.2228 71.6337C38.6038 71.7519 39.0001 71.8132 39.3964 71.8614C40.2218 71.9599 41.0604 71.9555 41.8902 71.9008C42.8098 71.8395 43.9067 71.811 44.7891 71.5067C46.7509 70.8323 48.5703 69.7879 50.2146 68.5312C51.1167 67.8415 51.9684 67.0905 52.7676 66.2847C53.1945 65.8534 53.604 65.3695 54.0134 64.9097C54.4163 64.4587 54.8279 63.9529 55.3687 63.6661C55.3906 63.653 55.4191 63.6354 55.4125 63.6092C55.4081 63.5851 55.3797 63.5763 55.3556 63.5719C55.0031 63.515 54.6396 63.526 54.2849 63.48C52.6516 63.272 51.0488 62.937 49.5512 62.2342C48.1083 61.5532 46.7465 60.6971 45.435 59.7929C44.2045 58.9434 43.009 58.0369 41.8705 57.067C41.2596 56.5481 40.6334 56.0029 40.1999 55.3154L40.1561 55.2278C40.1561 55.2278 40.3072 55.2366 40.4013 55.2563C41.4851 55.4599 44.1388 56.7232 44.1388 56.7232L44.3205 52.4712H44.3227C44.3665 52.5895 44.4103 52.7055 44.4585 52.8216C44.6468 53.2835 44.8591 53.7346 45.089 54.1768C45.4197 54.8118 45.7897 55.4292 46.1969 56.0204C46.6896 56.7386 47.2369 57.4195 47.839 58.0479C48.5178 58.7595 49.2644 59.4032 50.0723 59.9615C50.9678 60.5767 51.9378 61.0825 52.9581 61.4569C54.0353 61.8532 55.1673 62.197 56.3277 62.0984C56.3868 62.094 56.7568 62.0437 56.7744 62.1225C56.8335 62.4159 56.4656 62.7027 56.2752 62.8341C56.0168 63.0114 55.9095 63.1122 55.6293 63.3661C55.5877 63.4034 55.5329 63.48 55.5658 63.526C55.5877 63.5588 55.6424 63.5501 55.684 63.5501C58.0662 63.5369 60.2425 62.7772 62.3598 61.7415C62.513 61.6671 64.6018 60.6315 64.5142 60.5089C64.2383 60.1235 63.9406 59.7557 63.6231 59.4054C62.1999 60.1936 60.6498 61.0321 59.0646 61.4306C58.6376 61.5379 58.4033 61.6299 57.7815 61.735C57.6808 61.7525 57.5648 61.7963 57.5604 61.6605C57.556 61.5029 57.729 61.3847 57.8516 61.2927C58.4274 60.8548 59.0317 60.3271 59.5572 59.8257C60.2381 59.1776 60.6826 57.934 61.7664 57.8968C62.9443 57.8574 63.4895 58.5449 64.3106 59.7097C64.3697 59.7951 64.6981 60.3928 64.7704 60.3293C66.7212 58.6106 68.9567 56.443 70.439 54.3082C73.2371 50.2861 75.3347 45.5809 76.5345 40.8319C77.1301 38.4694 77.4256 36.0347 77.4694 33.6C77.4848 32.4308 77.3183 30.5369 77.0709 29.3918Z" fill="#BB6871"/>
<path d="M25.0244 11.0307C28.0704 11.0307 30.5397 8.56136 30.5397 5.51533C30.5397 2.4693 28.0704 0 25.0244 0C21.9783 0 19.509 2.4693 19.509 5.51533C19.509 8.56136 21.9783 11.0307 25.0244 11.0307Z" fill="#BB6871"/>
<path d="M58.1988 13.8688C60.829 13.4392 62.613 10.9587 62.1834 8.32846C61.7537 5.69825 59.2732 3.91432 56.643 4.34393C54.0128 4.77355 52.2289 7.25404 52.6585 9.88425C53.0881 12.5145 55.5686 14.2984 58.1988 13.8688Z" fill="#BB6871"/>
<path d="M7.21809 86.0522C7.32489 86.0522 7.44042 86.0588 7.56466 86.0719C7.68891 86.0849 7.80879 86.1046 7.9265 86.1264C8.0442 86.1503 8.15101 86.1721 8.24692 86.1961C8.34283 86.2201 8.41912 86.2441 8.47143 86.2702V87.3819H8.38206C8.38206 87.0615 8.2709 86.8086 8.05074 86.6255C7.83059 86.4424 7.56248 86.3509 7.2486 86.3509C6.88023 86.3509 6.58379 86.4664 6.35709 86.6975C6.1304 86.9285 6.01706 87.1966 6.01706 87.5039C6.01706 87.6304 6.04539 87.7786 6.10207 87.9508C6.15874 88.1208 6.26337 88.2799 6.41813 88.426L8.39296 90.2504C8.5935 90.4379 8.72646 90.6384 8.79403 90.852C8.8616 91.0656 8.8943 91.2727 8.8943 91.4732C8.8943 92.0269 8.72646 92.4781 8.3886 92.8268C8.05074 93.1756 7.59518 93.3478 7.01973 93.3478C6.85843 93.3478 6.67098 93.3304 6.453 93.2977C6.23503 93.265 6.02578 93.2061 5.82088 93.1233C5.61599 93.0405 5.44815 92.9315 5.31518 92.7985C5.29557 92.6917 5.28467 92.5587 5.28467 92.3974C5.28467 92.2361 5.29775 92.0683 5.3239 91.8917C5.35006 91.7152 5.38712 91.5539 5.43507 91.4057H5.52444C5.49174 91.7457 5.53534 92.0443 5.65522 92.2972C5.77511 92.5522 5.95166 92.744 6.18054 92.8726C6.41159 93.0034 6.67316 93.0623 6.96742 93.047C7.33579 93.0274 7.64967 92.8988 7.9156 92.6612C8.18153 92.4236 8.31231 92.1054 8.31231 91.7043C8.31231 91.5103 8.27962 91.3359 8.21204 91.179C8.14447 91.022 8.04856 90.8869 7.92214 90.7735L5.99744 88.9905C5.7969 88.8031 5.6574 88.5982 5.57675 88.3737C5.4961 88.1492 5.45687 87.9421 5.45687 87.7481C5.45687 87.4669 5.52444 87.1966 5.6574 86.9372C5.79037 86.6757 5.9909 86.4642 6.25465 86.3007C6.51839 86.1373 6.84099 86.0544 7.22245 86.0544L7.21809 86.0522ZM8.47143 86.1525V86.364H7.70853V86.1525H8.47143Z" fill="#661726"/>
<path d="M10.7274 92.4759V93.2083H9.61572V93.108H9.77702C9.95794 93.108 10.1171 93.0535 10.2587 92.9423C10.3982 92.8312 10.4833 92.6764 10.5094 92.4759H10.7296H10.7274ZM11.2592 86.0522H11.3595L11.56 86.6429L10.9693 93.2083H10.4288L11.2614 86.0522H11.2592ZM11.0195 92.6372V92.6873C11.0195 92.7941 11.0587 92.8922 11.135 92.9838C11.2113 93.0731 11.3028 93.1189 11.4096 93.1189H11.56V93.2083H10.9497V92.6372H11.0195ZM11.3595 86.0522L14.2455 92.2972L14.0144 93.35L11.1677 87.177L11.3573 86.0544L11.3595 86.0522ZM16.8917 86.0522L16.9723 86.7236L14.4569 92.3255C14.3566 92.5522 14.2803 92.744 14.2258 92.9009C14.1714 93.0579 14.1365 93.2061 14.1147 93.3478H14.0144L13.8749 92.7157L16.8917 86.05V86.0522ZM17.0115 92.6372H17.0813V93.2083H16.471V93.1189H16.6214C16.7347 93.1189 16.8284 93.0731 16.9026 92.9838C16.9767 92.8944 17.0137 92.7941 17.0137 92.6873V92.6372H17.0115ZM16.981 86.0522L17.842 93.2083H17.0595L16.508 87.1355L16.8895 86.0522H16.9788H16.981ZM17.5434 92.4759H17.7527C17.7853 92.6764 17.8725 92.8312 18.0142 92.9423C18.1537 93.0535 18.3107 93.108 18.485 93.108H18.6442V93.2083H17.5412V92.4759H17.5434Z" fill="#661726"/>
<path d="M20.2376 92.4759C20.1918 92.6088 20.1831 92.7222 20.218 92.8159C20.2507 92.9096 20.3073 92.9816 20.3836 93.0317C20.4599 93.0819 20.5384 93.1058 20.619 93.1058H20.7084V93.2061H18.6943V93.1058H18.7837C18.9385 93.1058 19.0954 93.0579 19.2589 92.9598C19.4224 92.8639 19.5575 92.7004 19.6643 92.4737H20.2354L20.2376 92.4759ZM22.3933 86.0522L22.4827 86.7541L19.9673 93.1778H19.3657L21.9312 87.0832C22.0053 86.9154 22.0664 86.7715 22.1165 86.6516C22.1666 86.5318 22.2102 86.4141 22.2473 86.3007C22.2843 86.1874 22.3018 86.1045 22.3018 86.05H22.3912L22.3933 86.0522ZM23.8058 90.4727V90.7735H20.6692V90.4727H23.8058ZM22.3933 86.0522L25.3599 93.1472H24.5077L22.1928 87.0026L22.3933 86.05V86.0522ZM24.257 92.4759H25.0788C25.179 92.7026 25.312 92.8661 25.4798 92.962C25.6477 93.0601 25.8068 93.108 25.9616 93.108H26.0422V93.2083H23.7862V93.108H23.8756C24.002 93.108 24.1153 93.0535 24.2156 92.9423C24.3159 92.8312 24.3289 92.6764 24.2548 92.4759H24.257Z" fill="#661726"/>
<path d="M27.3348 86.9242H27.3043C27.2978 86.7499 27.2324 86.6016 27.1081 86.4774C26.9839 86.3532 26.8357 86.2921 26.6613 86.2921H26.5305V86.1919H27.3327V86.9242H27.3348ZM27.3348 92.476V93.2084H26.5327V93.1081H26.6635C26.8379 93.1081 26.9861 93.0471 27.1103 92.9229C27.2346 92.7986 27.3 92.6504 27.3065 92.476H27.337H27.3348ZM27.9561 86.1919V93.2084H27.3043V86.1919H27.9561ZM29.2399 86.1919C29.5407 86.1919 29.8132 86.2355 30.0573 86.3226C30.3014 86.4098 30.5063 86.5341 30.6742 86.6976C30.842 86.861 30.9706 87.0594 31.06 87.2883C31.1494 87.5193 31.1951 87.7809 31.1951 88.0751C31.1951 88.3956 31.121 88.7029 30.9706 88.9972C30.8202 89.2914 30.6175 89.529 30.3603 89.7143C30.1031 89.8974 29.8132 89.9889 29.4928 89.9889C29.6061 90.0347 29.7304 90.1306 29.8633 90.2745C29.9963 90.4184 30.114 90.5557 30.2143 90.6908C30.3952 90.9524 30.5543 91.1747 30.6894 91.3622C30.8268 91.5496 30.9641 91.7327 31.1058 91.9136C31.2453 92.0946 31.3673 92.2384 31.4676 92.3452C31.6006 92.4913 31.7357 92.6221 31.8687 92.7354C32.0016 92.8487 32.1477 92.9403 32.3046 93.0057C32.4616 93.0733 32.6359 93.106 32.8299 93.106V93.2062H32.2785C31.9711 93.2062 31.7052 93.1605 31.4807 93.0667C31.2562 92.973 31.0687 92.8575 30.914 92.7201C30.7592 92.5828 30.6306 92.452 30.5238 92.3234C30.5042 92.2973 30.4497 92.2188 30.3581 92.0924C30.2688 91.966 30.1619 91.8134 30.0377 91.6368C29.9135 91.4603 29.7914 91.2837 29.6715 91.1115C29.5516 90.9371 29.447 90.7889 29.3598 90.6647C29.2726 90.5404 29.2225 90.4685 29.2094 90.4489C29.083 90.281 28.9413 90.1284 28.7887 89.9868C28.634 89.8473 28.4683 89.7753 28.2874 89.7753V89.6751C28.4945 89.6816 28.671 89.6816 28.8192 89.6751C28.9936 89.6685 29.1832 89.6424 29.3903 89.5944C29.5974 89.5486 29.7914 89.4506 29.9723 89.3045C30.1532 89.1585 30.2905 88.934 30.3821 88.6332C30.4017 88.559 30.4192 88.4675 30.4322 88.3585C30.4453 88.2473 30.4497 88.1405 30.4431 88.0337C30.4366 87.5803 30.3211 87.2163 30.0966 86.946C29.872 86.6758 29.5734 86.5297 29.1985 86.5101C29.011 86.497 28.8192 86.4927 28.6231 86.4948C28.4269 86.4992 28.1937 86.4992 27.9255 86.4992C27.9255 86.4927 27.9168 86.4643 27.8994 86.4142C27.8819 86.3641 27.858 86.2878 27.8253 86.1875H29.2377L29.2399 86.1919ZM27.9277 92.476H27.9582C27.9582 92.6504 28.0215 92.7986 28.1479 92.9229C28.2743 93.0471 28.4247 93.1081 28.5991 93.1081H28.719V93.2084H27.9277V92.476Z" fill="#661726"/>
<path d="M32.3657 86.0022C32.4333 86.0283 32.5336 86.0567 32.6709 86.0828C32.8082 86.109 32.9608 86.133 33.1264 86.1526C33.2943 86.1722 33.4469 86.1831 33.5886 86.1831L32.3657 86.2943V86.0044V86.0022ZM38.1682 86.1831V86.4839H32.3657V86.1831H38.1682ZM33.0567 86.4534V86.4839C32.8889 86.4904 32.7494 86.5515 32.636 86.6648C32.5227 86.7782 32.466 86.9198 32.466 87.0855V87.2555L32.3657 87.2664V86.4556H33.0567V86.4534ZM34.9705 92.476V93.2084H34.1684V93.1081H34.2991C34.4735 93.1081 34.6217 93.0471 34.746 92.9228C34.8702 92.7986 34.9356 92.6503 34.9422 92.476H34.9727H34.9705ZM35.5917 86.2223V93.2084H34.94V86.2223H35.5917ZM35.5612 92.476H35.5917C35.5983 92.6503 35.6637 92.7986 35.7879 92.9228C35.9121 93.0471 36.0604 93.1081 36.2347 93.1081H36.3655V93.2084H35.5634V92.476H35.5612ZM38.166 86.0022V86.2921L36.9432 86.1809C37.0892 86.1809 37.2461 86.17 37.4096 86.1504C37.5731 86.1308 37.7257 86.1068 37.8652 86.0806C38.0047 86.0545 38.1049 86.0283 38.166 86V86.0022ZM38.166 86.4534V87.2642L38.0657 87.2533V87.0833C38.0657 86.9155 38.0069 86.776 37.8913 86.6626C37.7736 86.5493 37.6363 86.4883 37.475 86.4817V86.4512H38.166V86.4534Z" fill="#661726"/>
<path d="M42.1461 92.4957V93.2063H41.3135V93.106H41.5031C41.671 93.106 41.8148 93.045 41.9347 92.9251C42.0546 92.8052 42.1156 92.6613 42.1156 92.4935H42.1461V92.4957ZM42.1265 86.0415L42.5668 86.6039L42.5777 93.2085H42.1156V87.2948C42.1156 86.9548 42.0851 86.5363 42.0262 86.0415H42.1265ZM42.1265 86.0415L47.9486 92.2559L48.0379 93.348L42.2159 87.1444L42.1265 86.0415ZM42.5777 92.4957C42.5777 92.6635 42.6388 92.8074 42.7586 92.9273C42.8785 93.0472 43.0224 93.1082 43.1902 93.1082H43.3799V93.2085H42.5472V92.4979H42.5777V92.4957ZM46.7781 86.1919H47.6107V86.9025H47.5911C47.5846 86.7281 47.5235 86.5843 47.4058 86.4666C47.2881 86.3488 47.1443 86.2922 46.9699 86.2922H46.7802V86.1919H46.7781ZM48.0401 86.1919V92.0641C48.0401 92.2777 48.0467 92.4826 48.0597 92.681C48.0728 92.8771 48.0968 93.0995 48.1295 93.348H48.0401L47.5889 92.8161V86.1919H48.0401ZM48.8423 86.1919V86.2922H48.6613C48.4935 86.2922 48.3496 86.351 48.2298 86.4666C48.1099 86.5843 48.0467 86.7281 48.0401 86.9025H48.0096V86.1919H48.8423Z" fill="#661726"/>
<path d="M50.5162 86.1919V86.7935H50.4857C50.4857 86.6475 50.4333 86.5254 50.3309 86.4317C50.2284 86.3379 50.102 86.2922 49.956 86.2922H49.7947V86.1919H50.5162ZM51.1374 86.1919V90.6015C51.1374 91.0832 51.2268 91.5061 51.4033 91.8744C51.5799 92.2428 51.8305 92.5284 52.151 92.7311C52.4714 92.9338 52.8419 93.0362 53.2626 93.0362C53.7095 93.0362 54.1018 92.9403 54.4353 92.7463C54.7688 92.5523 55.0304 92.2842 55.2178 91.9398C55.4053 91.5954 55.499 91.1922 55.499 90.7323V86.1919H55.9698V90.7323C55.9698 91.2532 55.8587 91.7088 55.6342 92.1011C55.4097 92.4913 55.0936 92.7987 54.686 93.0188C54.2784 93.239 53.8032 93.3501 53.2626 93.3501C52.7221 93.3501 52.2229 93.2411 51.8044 93.0253C51.3859 92.8096 51.0633 92.5044 50.8322 92.1142C50.6012 91.724 50.4857 91.2685 50.4857 90.7453V86.1941H51.1374V86.1919ZM51.8284 86.1919V86.2922H51.6671C51.521 86.2922 51.3946 86.3379 51.2922 86.4317C51.1897 86.5254 51.1374 86.6453 51.1374 86.7935H51.1178V86.1919H51.8305H51.8284ZM55.5274 86.1919V86.7935H55.4968C55.4968 86.6475 55.4445 86.5254 55.3421 86.4317C55.2396 86.3379 55.1132 86.2922 54.9672 86.2922H54.8059V86.1919H55.5274ZM56.6608 86.1919V86.2922H56.4995C56.3535 86.2922 56.2271 86.3379 56.1246 86.4317C56.02 86.5254 55.9698 86.6453 55.9698 86.7935H55.9502V86.1919H56.6608Z" fill="#661726"/>
<path d="M58.433 86.9242H58.4025C58.3959 86.7499 58.3305 86.6016 58.2063 86.4774C58.082 86.3532 57.9338 86.2921 57.7594 86.2921H57.6287V86.1919H58.4308V86.9242H58.433ZM58.433 92.476V93.2084H57.6308V93.1081H57.7616C57.936 93.1081 58.0842 93.0471 58.2085 92.9229C58.3327 92.7986 58.3981 92.6504 58.4046 92.476H58.4352H58.433ZM59.0542 86.1919V93.2084H58.4025V86.1919H59.0542ZM60.3381 86.1919C60.6389 86.1919 60.9113 86.2355 61.1555 86.3226C61.3996 86.4098 61.6045 86.5341 61.7723 86.6976C61.9402 86.861 62.0688 87.0594 62.1581 87.2883C62.2475 87.5193 62.2933 87.7809 62.2933 88.0751C62.2933 88.3956 62.2192 88.7029 62.0688 88.9972C61.9184 89.2914 61.7157 89.529 61.4584 89.7143C61.2012 89.8974 60.9113 89.9889 60.5909 89.9889C60.7043 90.0347 60.8285 90.1306 60.9615 90.2745C61.0944 90.4184 61.2121 90.5557 61.3124 90.6908C61.4933 90.9524 61.6524 91.1747 61.7876 91.3622C61.9249 91.5496 62.0622 91.7327 62.2039 91.9136C62.3434 92.0946 62.4655 92.2384 62.5657 92.3452C62.6987 92.4913 62.8317 92.6221 62.9668 92.7354C63.0998 92.8487 63.2458 92.9403 63.4028 93.0057C63.5597 93.0733 63.7341 93.106 63.9281 93.106V93.2062H63.3766C63.0693 93.2062 62.8033 93.1605 62.5788 93.0667C62.3543 92.973 62.1669 92.8575 62.0121 92.7201C61.8573 92.5828 61.7287 92.452 61.6219 92.3234C61.6023 92.2973 61.5478 92.2188 61.4563 92.0924C61.3669 91.966 61.2601 91.8134 61.1358 91.6368C61.0116 91.4603 60.8895 91.2837 60.7697 91.1115C60.6498 90.9371 60.5451 90.7889 60.458 90.6647C60.3708 90.5404 60.3206 90.4685 60.3076 90.4489C60.1811 90.281 60.0394 90.1284 59.8869 89.9868C59.7321 89.8473 59.5664 89.7753 59.3855 89.7753V89.6751C59.5926 89.6816 59.7692 89.6816 59.9174 89.6751C60.0918 89.6685 60.2814 89.6424 60.4885 89.5944C60.6955 89.5486 60.8895 89.4506 61.0705 89.3045C61.2514 89.1585 61.3887 88.934 61.4802 88.6332C61.4999 88.559 61.5173 88.4675 61.5304 88.3585C61.5435 88.2473 61.5478 88.1405 61.5413 88.0337C61.5347 87.5803 61.4192 87.2163 61.1947 86.946C60.9702 86.6758 60.6716 86.5297 60.2966 86.5101C60.1092 86.497 59.9174 86.4927 59.7212 86.4948C59.525 86.4992 59.2918 86.4992 59.0237 86.4992C59.0237 86.4927 59.015 86.4643 58.9975 86.4142C58.9801 86.3641 58.9561 86.2878 58.9234 86.1875H60.3359L60.3381 86.1919ZM59.0259 92.476H59.0564C59.0564 92.6504 59.1196 92.7986 59.246 92.9229C59.3724 93.0471 59.5228 93.1081 59.6972 93.1081H59.8171V93.2084H59.0259V92.476Z" fill="#661726"/>
<path d="M66.1297 86.0522C66.2365 86.0522 66.3521 86.0588 66.4763 86.0719C66.6005 86.0849 66.7204 86.1046 66.8381 86.1264C66.9558 86.1503 67.0626 86.1721 67.1586 86.1961C67.2566 86.2201 67.3308 86.2441 67.3852 86.2702V87.3819H67.2959C67.2959 87.0615 67.1847 86.8086 66.9646 86.6255C66.7444 86.4424 66.4763 86.3509 66.1624 86.3509C65.794 86.3509 65.4976 86.4664 65.2709 86.6975C65.0442 86.9285 64.9309 87.1966 64.9309 87.5039C64.9309 87.6304 64.9592 87.7786 65.0159 87.9508C65.0726 88.1208 65.1772 88.2799 65.3319 88.426L67.3068 90.2504C67.5073 90.4379 67.6403 90.6384 67.7078 90.852C67.7754 91.0656 67.8081 91.2727 67.8081 91.4732C67.8081 92.0269 67.6381 92.4781 67.3024 92.8268C66.9646 93.1734 66.509 93.3478 65.9335 93.3478C65.7744 93.3478 65.5848 93.3304 65.3668 93.2977C65.1488 93.265 64.9396 93.2061 64.7347 93.1233C64.5298 93.0405 64.362 92.9315 64.229 92.7985C64.2094 92.6917 64.1985 92.5587 64.1985 92.3974C64.1985 92.2361 64.2116 92.0683 64.2377 91.8917C64.2639 91.7152 64.3009 91.5539 64.3489 91.4057H64.4383C64.4056 91.7457 64.447 92.0443 64.569 92.2972C64.6889 92.5522 64.8655 92.744 65.0944 92.8726C65.3254 93.0034 65.587 93.0623 65.8812 93.047C66.2496 93.0274 66.5635 92.8988 66.8272 92.6612C67.091 92.4236 67.2239 92.1054 67.2239 91.7043C67.2239 91.5103 67.1913 91.3359 67.1237 91.179C67.0561 91.022 66.9602 90.8869 66.8338 90.7735L64.9091 88.9905C64.7085 88.8031 64.569 88.5982 64.4884 88.3737C64.4077 88.1492 64.3685 87.9421 64.3685 87.7481C64.3685 87.4669 64.4361 87.1966 64.569 86.9372C64.702 86.6757 64.9004 86.4642 65.1641 86.3007C65.4279 86.1373 65.7505 86.0544 66.1319 86.0544L66.1297 86.0522ZM67.3831 86.1525V86.364H66.6223V86.1525H67.3831Z" fill="#661726"/>
<path d="M69.7785 86.9243H69.7479C69.7479 86.7499 69.6847 86.6017 69.5583 86.4774C69.4319 86.3532 69.2815 86.2922 69.1071 86.2922H68.9872L68.9785 86.1919H69.7806V86.9243H69.7785ZM69.7785 92.4761V93.2084H68.9763V93.1082H69.1071C69.2815 93.1082 69.4297 93.0471 69.5518 92.9229C69.676 92.7987 69.7414 92.6504 69.7479 92.4761H69.7785ZM70.3997 86.1919V93.2084H69.7479V86.1919H70.3997ZM73.1047 86.1919V86.5036H70.3692V86.1919H73.1047ZM72.6731 89.5988V89.8996H70.367V89.5988H72.6731ZM73.1047 92.8967V93.2084H70.3692V92.8967H73.1047ZM73.715 91.5845L73.1331 93.2084H71.4699L71.8296 92.8967C72.1827 92.8967 72.4726 92.8423 72.6971 92.7311C72.9216 92.6199 73.1025 92.4652 73.2442 92.2646C73.3837 92.0641 73.508 91.8374 73.6148 91.5824H73.715V91.5845ZM73.1047 86.0132V86.3031L71.8819 86.1919C72.0279 86.1919 72.1849 86.181 72.3484 86.1614C72.5118 86.1418 72.6644 86.1178 72.8039 86.0916C72.9434 86.0655 73.0437 86.0371 73.1047 86.011V86.0132ZM72.6731 88.9602V89.6228H72.0912V89.6032C72.2241 89.5966 72.3375 89.5443 72.4312 89.4484C72.5249 89.3525 72.5707 89.237 72.5707 89.1018V88.9623H72.671L72.6731 88.9602ZM72.6731 89.8822V90.5448H72.5729V90.3944C72.5729 90.2615 72.5271 90.1459 72.4334 90.0478C72.3396 89.9519 72.2263 89.9018 72.0933 89.9018V89.8822H72.6753H72.6731ZM73.1047 86.4753V87.2774H73.0045V87.0965C73.0045 86.9352 72.9478 86.7979 72.8344 86.6802C72.7211 86.5625 72.5816 86.5014 72.4137 86.4949V86.4753H73.1047Z" fill="#661726"/>
<path d="M2.10849 100.302H2.05181C2.03874 99.9749 1.91667 99.6959 1.68344 99.4649C1.45021 99.2316 1.1712 99.1161 0.846425 99.1161H0.602295V98.9287H2.10849V100.304V100.302ZM2.10849 110.736V112.112H0.602295V111.924H0.846425C1.17338 111.924 1.45239 111.809 1.68344 111.575C1.91667 111.344 2.03874 111.063 2.05181 110.738H2.10849V110.736ZM4.87674 98.9265V112.109H2.05181V98.9265H4.87674ZM10.0754 98.9265V99.7373H4.82007V98.9265H10.0754ZM9.15337 105.217V106.008H4.82225V105.217H9.15337ZM9.85088 111.301L10.3021 112.112H4.82225V111.301H9.85088ZM11.2263 108.269L10.3609 112.112H6.66848L7.34638 111.301C7.97414 111.301 8.52561 111.179 9.00297 110.935C9.48033 110.69 9.88794 110.337 10.228 109.88C10.568 109.422 10.8361 108.886 11.0388 108.269H11.2263ZM9.15555 103.447V105.254H7.36599V105.217C7.83027 105.204 8.21391 105.045 8.51471 104.738C8.81551 104.43 8.96591 104.051 8.96591 103.598V103.447H9.15337H9.15555ZM9.15555 105.971V107.778H8.96809V107.608C8.96809 107.157 8.81769 106.78 8.51689 106.479C8.21609 106.178 7.83245 106.022 7.36817 106.008V105.971H9.15773H9.15555ZM10.0776 98.5886V99.1357L7.78014 98.9287C8.05697 98.9287 8.34905 98.909 8.65639 98.872C8.96373 98.8349 9.24928 98.7913 9.51303 98.739C9.77677 98.6889 9.96423 98.6388 10.0776 98.5886ZM10.0776 99.6807V101.884H9.89012V101.658C9.89012 101.08 9.71792 100.616 9.37134 100.265C9.02695 99.9139 8.5583 99.7308 7.9676 99.7177V99.6807H10.0776Z" fill="black"/>
<path d="M14.7892 110.613V111.949H13.2263V111.762H13.5838C13.8977 111.762 14.168 111.648 14.3947 111.424C14.6213 111.197 14.7325 110.927 14.7325 110.613H14.7892ZM14.6955 98.4851L17.407 101.367L17.4267 111.951H14.7325V100.839C14.7325 100.135 14.6562 99.3505 14.5058 98.4851H14.6933H14.6955ZM14.6955 98.4851L26.7123 109.935L26.939 112.215L14.9221 100.783L14.6955 98.4851ZM17.4267 110.613C17.4267 110.927 17.54 111.197 17.7645 111.424C17.9912 111.651 18.2615 111.762 18.5754 111.762H18.9328V111.949H17.37V110.613H17.4267ZM22.682 98.7663H24.2448V100.102H24.2078C24.1947 99.7755 24.0792 99.503 23.859 99.2829C23.6389 99.0627 23.3664 98.9537 23.0395 98.9537H22.682V98.7663ZM26.8823 98.7663V109.802C26.8823 110.267 26.9019 110.685 26.939 111.056C26.976 111.426 27.0327 111.812 27.109 112.213H26.939L24.2078 109.161V98.7641H26.8823V98.7663ZM28.3885 98.7663V98.9537H28.0485C27.7346 98.9537 27.4643 99.0627 27.2398 99.2829C27.0131 99.503 26.8954 99.7755 26.8823 100.102H26.8256V98.7663H28.3885Z" fill="black"/>
<path d="M31.8946 100.135H31.8379C31.8249 99.8082 31.7028 99.5292 31.4718 99.2981C31.2385 99.0649 30.9595 98.9494 30.6326 98.9494H30.3884V98.7619H31.8946V100.137V100.135ZM31.8946 110.57V111.945H30.3884V111.757H30.6326C30.9595 111.757 31.2385 111.642 31.4718 111.409C31.705 111.178 31.8271 110.896 31.8379 110.572H31.8946V110.57ZM34.6629 98.7597V111.943H31.8379V98.7597H34.6629ZM36.847 98.7597C37.4115 98.7597 37.9652 98.8229 38.5036 98.9472C39.0441 99.0736 39.5237 99.2741 39.9444 99.5488C40.365 99.8256 40.7007 100.19 40.9514 100.641C41.2021 101.092 41.3285 101.652 41.3285 102.317C41.3285 102.845 41.2195 103.37 40.9993 103.889C40.7792 104.41 40.4435 104.856 39.9923 105.225C39.5411 105.595 38.9569 105.818 38.2398 105.894C38.6409 106.02 39.0093 106.245 39.3406 106.572C39.6741 106.899 39.9465 107.226 40.1602 107.551C40.1732 107.577 40.2452 107.688 40.3759 107.888C40.5067 108.089 40.6702 108.337 40.8664 108.632C41.0604 108.926 41.2653 109.225 41.4789 109.525C41.6925 109.826 41.8865 110.09 42.0631 110.317C42.3399 110.655 42.5905 110.929 42.8172 111.136C43.0439 111.343 43.2815 111.494 43.5322 111.587C43.7829 111.681 44.0728 111.736 44.3975 111.747V111.934H42.5513C41.8734 111.934 41.2587 111.871 40.7051 111.747C40.1514 111.62 39.6632 111.417 39.2359 111.134C38.8087 110.851 38.4382 110.465 38.1243 109.977C38.024 109.826 37.9129 109.634 37.7951 109.403C37.6753 109.17 37.5532 108.924 37.429 108.66C37.3025 108.396 37.1805 108.141 37.0628 107.897C36.9429 107.653 36.8404 107.431 36.7511 107.228C36.6639 107.027 36.6007 106.87 36.5636 106.757C36.4001 106.356 36.2083 106.055 35.9903 105.853C35.7702 105.652 35.5348 105.532 35.2841 105.495V105.308H35.8683C36.2083 105.308 36.5374 105.238 36.8579 105.101C37.1783 104.963 37.4638 104.737 37.7145 104.423C37.9652 104.109 38.1417 103.675 38.242 103.124C38.266 103.01 38.2899 102.879 38.3074 102.729C38.327 102.579 38.3292 102.409 38.3161 102.221C38.279 101.317 38.0524 100.656 37.6382 100.233C37.2241 99.8125 36.7096 99.5967 36.095 99.5837C35.9184 99.5706 35.7288 99.5684 35.5217 99.575C35.3146 99.5815 35.1272 99.5837 34.9571 99.5837H34.6084C34.6084 99.5706 34.5931 99.4987 34.5604 99.3679C34.5299 99.2349 34.482 99.0322 34.4187 98.7554H36.8491L36.847 98.7597ZM34.6062 110.57H34.6629C34.6629 110.896 34.7828 111.175 35.0204 111.407C35.2579 111.64 35.5413 111.755 35.8683 111.755H36.095V111.943H34.6062V110.567V110.57Z" fill="black"/>
<rect x="46.3977" y="97.3501" width="32" height="16" rx="8" fill="#D3727B"/>
<path d="M53.3493 102.462V108.35H54.2773V106.118H55.1653C55.4853 106.118 55.7813 106.081 56.0533 106.006C56.3253 105.931 56.5573 105.817 56.7493 105.662C56.9466 105.507 57.1013 105.313 57.2133 105.078C57.3253 104.838 57.3813 104.558 57.3813 104.238C57.3813 103.907 57.3253 103.63 57.2133 103.406C57.1013 103.177 56.9466 102.993 56.7493 102.854C56.552 102.715 56.3146 102.617 56.0373 102.558C55.7653 102.494 55.464 102.462 55.1333 102.462H53.3493ZM55.0773 105.374H54.2773V103.206H55.0453C55.5146 103.206 55.8693 103.281 56.1093 103.43C56.3493 103.579 56.4693 103.849 56.4693 104.238C56.4693 104.627 56.3573 104.915 56.1333 105.102C55.9146 105.283 55.5626 105.374 55.0773 105.374ZM58.449 103.95V108.35H59.361V105.606C59.4997 105.259 59.6677 105.017 59.865 104.878C60.0623 104.734 60.2517 104.662 60.433 104.662C60.5237 104.662 60.601 104.667 60.665 104.678C60.729 104.689 60.7983 104.707 60.873 104.734L61.041 103.934C60.9717 103.902 60.897 103.878 60.817 103.862C60.7423 103.846 60.6517 103.838 60.545 103.838C60.305 103.838 60.0757 103.918 59.857 104.078C59.6383 104.233 59.4517 104.454 59.297 104.742H59.273L59.201 103.95H58.449ZM63.4045 108.454C63.6765 108.454 63.9378 108.403 64.1885 108.302C64.4392 108.195 64.6578 108.046 64.8445 107.854C65.0365 107.657 65.1885 107.417 65.3005 107.134C65.4178 106.846 65.4765 106.521 65.4765 106.158C65.4765 105.79 65.4178 105.462 65.3005 105.174C65.1885 104.886 65.0365 104.643 64.8445 104.446C64.6578 104.249 64.4392 104.099 64.1885 103.998C63.9378 103.891 63.6765 103.838 63.4045 103.838C63.1325 103.838 62.8712 103.891 62.6205 103.998C62.3698 104.099 62.1485 104.249 61.9565 104.446C61.7698 104.643 61.6178 104.886 61.5005 105.174C61.3885 105.462 61.3325 105.79 61.3325 106.158C61.3325 106.521 61.3885 106.846 61.5005 107.134C61.6178 107.417 61.7698 107.657 61.9565 107.854C62.1485 108.046 62.3698 108.195 62.6205 108.302C62.8712 108.403 63.1325 108.454 63.4045 108.454ZM63.4045 107.702C63.2338 107.702 63.0792 107.665 62.9405 107.59C62.8018 107.515 62.6845 107.411 62.5885 107.278C62.4925 107.145 62.4178 106.982 62.3645 106.79C62.3112 106.598 62.2845 106.387 62.2845 106.158C62.2845 105.689 62.3832 105.313 62.5805 105.03C62.7778 104.742 63.0525 104.598 63.4045 104.598C63.7565 104.598 64.0312 104.742 64.2285 105.03C64.4312 105.313 64.5325 105.689 64.5325 106.158C64.5325 106.387 64.5058 106.598 64.4525 106.79C64.3992 106.982 64.3245 107.145 64.2285 107.278C64.1325 107.411 64.0152 107.515 63.8765 107.59C63.7378 107.665 63.5805 107.702 63.4045 107.702ZM69.5716 105.718V107.446H70.2756V105.718H71.8996V105.046H70.2756V103.318H69.5716V105.046H67.9476V105.718H69.5716Z" fill="white"/>
</svg>
